<svg id="svg" version="1.1" xmlns="http://www.w3.org/2000/svg" xmlns:xlink="http://www.w3.org/1999/xlink" width="400" height="265.8666666666667" viewBox="0, 0, 400,265.8666666666667"><g id="svgg"><path id="path0" d="M208.333 80.856 C 208.333 98.899,208.275 108.211,208.155 109.231 C 207.965 110.845,207.265 113.531,206.891 114.079 C 206.768 114.260,206.667 114.535,206.667 114.692 C 206.667 114.848,206.566 115.077,206.442 115.201 C 206.319 115.324,206.085 115.704,205.923 116.046 C 205.761 116.387,205.562 116.667,205.481 116.667 C 205.400 116.667,205.333 116.754,205.333 116.861 C 205.333 116.968,205.219 117.174,205.079 117.319 C 204.940 117.465,204.452 117.973,203.995 118.450 C 202.974 119.516,201.443 120.776,200.998 120.917 C 200.816 120.975,200.667 121.092,200.667 121.178 C 200.667 121.263,200.532 121.333,200.367 121.333 C 200.202 121.333,199.992 121.408,199.901 121.499 C 198.241 123.159,190.835 123.602,187.727 122.228 C 185.788 121.370,184.146 120.444,184.028 120.142 C 183.997 120.064,183.901 120.000,183.813 120.000 C 183.725 120.000,183.342 119.700,182.960 119.333 C 182.578 118.967,182.206 118.667,182.133 118.667 C 182.060 118.667,182.000 118.586,182.000 118.487 C 182.000 118.388,181.779 118.087,181.510 117.817 C 180.344 116.652,178.899 113.872,178.344 111.726 C 178.001 110.399,177.993 110.064,177.998 96.851 L 178.003 83.333 173.751 83.333 L 169.500 83.333 169.500 96.261 C 169.500 112.051,169.692 113.891,171.756 117.833 C 171.876 118.063,172.021 118.362,172.078 118.500 C 172.230 118.865,172.838 119.850,173.458 120.740 C 173.756 121.167,174.000 121.563,174.000 121.619 C 174.000 121.676,174.110 121.841,174.245 121.986 C 177.695 125.700,179.015 126.882,181.083 128.111 C 181.733 128.496,184.800 130.000,184.938 130.000 C 185.014 130.000,185.453 130.144,185.913 130.321 C 188.364 131.260,194.911 131.749,197.055 131.154 C 197.406 131.057,198.156 130.876,198.721 130.752 C 199.822 130.510,201.384 129.990,202.333 129.548 C 203.545 128.984,204.592 128.445,204.833 128.260 C 204.971 128.155,205.290 127.966,205.542 127.840 C 205.794 127.714,206.000 127.548,206.000 127.472 C 206.000 127.396,206.079 127.333,206.176 127.333 C 206.713 127.333,210.005 124.345,211.317 122.667 C 211.783 122.071,212.258 121.474,212.374 121.339 C 212.629 121.043,212.713 120.902,213.689 119.143 C 214.930 116.906,215.629 115.037,216.174 112.500 C 216.548 110.759,216.643 104.154,216.655 79.125 L 216.667 54.000 212.500 54.000 L 208.333 54.000 208.333 80.856 M70.583 83.595 C 70.033 83.724,69.321 83.878,69.000 83.938 C 68.679 83.998,68.138 84.187,67.798 84.357 C 67.458 84.527,67.083 84.668,66.965 84.670 C 66.847 84.672,66.563 84.821,66.333 85.000 C 66.104 85.179,65.785 85.328,65.625 85.330 C 65.465 85.332,65.333 85.391,65.333 85.461 C 65.333 85.531,65.033 85.773,64.667 86.000 C 64.300 86.227,64.000 86.469,64.000 86.539 C 64.000 86.609,63.917 86.667,63.815 86.667 C 62.897 86.667,60.073 90.796,59.085 93.583 C 57.977 96.713,59.231 102.564,61.542 105.043 C 61.794 105.314,62.000 105.568,62.000 105.609 C 62.000 105.765,63.660 107.333,63.825 107.333 C 63.921 107.333,64.000 107.403,64.000 107.488 C 64.000 107.723,65.325 108.568,66.782 109.263 C 69.421 110.522,69.543 110.532,83.500 110.647 L 95.917 110.750 96.833 111.188 C 100.191 112.792,101.627 117.486,99.639 120.359 C 99.471 120.602,99.333 120.867,99.333 120.947 C 99.333 121.027,99.202 121.218,99.042 121.371 C 98.881 121.525,98.652 121.747,98.533 121.867 C 98.414 121.986,98.191 122.215,98.038 122.375 C 97.885 122.535,97.694 122.667,97.614 122.667 C 97.534 122.667,97.234 122.833,96.948 123.037 C 96.185 123.580,93.083 123.636,62.708 123.653 L 36.667 123.667 36.667 127.500 L 36.667 131.333 66.542 131.331 C 93.080 131.330,96.519 131.300,97.333 131.070 C 97.837 130.927,98.475 130.749,98.750 130.674 C 99.283 130.528,100.867 129.805,101.411 129.459 C 104.023 127.795,105.793 125.903,106.989 123.499 C 107.285 122.904,107.591 122.294,107.669 122.145 C 108.777 120.028,108.740 114.236,107.604 112.040 C 107.455 111.752,107.333 111.437,107.333 111.339 C 107.333 111.081,106.197 109.137,105.583 108.346 C 105.153 107.792,103.542 106.180,102.987 105.750 C 102.196 105.137,100.252 104.000,99.994 104.000 C 99.897 104.000,99.581 103.878,99.292 103.729 C 97.589 102.848,96.794 102.795,83.583 102.684 L 71.250 102.580 70.270 102.175 C 69.288 101.770,67.333 100.105,67.333 99.674 C 67.333 99.561,67.171 99.240,66.973 98.962 C 65.788 97.298,66.968 93.751,69.212 92.229 C 69.599 91.966,69.957 91.696,70.007 91.629 C 70.057 91.563,70.582 91.337,71.174 91.129 L 72.250 90.750 88.125 90.705 L 104.000 90.660 104.000 86.997 L 104.000 83.333 87.792 83.347 C 74.505 83.359,71.403 83.403,70.583 83.595 M135.167 83.592 C 134.479 83.728,133.542 83.907,133.083 83.989 C 132.625 84.071,131.912 84.255,131.500 84.400 C 131.087 84.544,130.655 84.663,130.540 84.664 C 130.134 84.669,126.628 86.332,125.705 86.958 C 125.401 87.165,125.116 87.333,125.071 87.333 C 124.405 87.333,119.638 92.017,118.539 93.751 C 117.907 94.748,117.669 95.103,117.510 95.285 C 117.413 95.395,117.333 95.597,117.333 95.733 C 117.333 95.869,117.261 96.025,117.172 96.080 C 117.005 96.183,116.004 98.189,115.994 98.440 C 115.991 98.519,115.844 98.883,115.667 99.250 C 115.490 99.617,115.342 100.033,115.339 100.176 C 115.336 100.319,115.191 100.881,115.018 101.426 C 114.054 104.454,114.094 111.408,115.089 113.790 C 115.223 114.111,115.333 114.501,115.333 114.656 C 115.333 114.811,115.483 115.248,115.667 115.627 C 115.850 116.007,116.000 116.392,116.000 116.484 C 116.000 116.732,117.690 119.908,117.857 119.972 C 117.935 120.003,118.000 120.100,118.000 120.187 C 118.000 120.586,120.055 123.198,121.417 124.528 C 123.223 126.292,125.772 128.209,126.833 128.599 C 126.971 128.650,127.215 128.761,127.375 128.845 C 128.622 129.506,129.707 130.000,129.910 130.000 C 130.027 130.000,130.488 130.142,130.936 130.316 C 134.431 131.672,140.814 131.716,145.583 130.416 C 145.908 130.327,146.667 131.207,146.667 131.672 C 146.667 131.769,146.960 132.426,147.318 133.133 C 147.676 133.839,148.436 135.392,149.007 136.583 C 150.820 140.363,154.791 148.300,155.067 148.695 C 155.214 148.903,155.333 149.126,155.333 149.188 C 155.333 149.251,148.077 149.338,139.208 149.382 C 122.266 149.464,121.226 149.509,118.712 150.251 C 116.967 150.766,114.203 151.891,114.000 152.170 C 113.954 152.233,113.635 152.416,113.292 152.578 C 112.948 152.739,112.667 152.938,112.667 153.019 C 112.667 153.100,112.591 153.167,112.497 153.167 C 112.252 153.167,110.000 154.832,110.000 155.013 C 110.000 155.098,109.922 155.167,109.828 155.167 C 109.603 155.167,107.333 157.436,107.333 157.661 C 107.333 157.756,107.261 157.833,107.173 157.833 C 107.036 157.833,106.239 158.883,105.333 160.258 C 101.540 166.015,100.426 173.248,102.369 179.500 C 102.819 180.948,103.318 182.203,103.795 183.083 C 103.894 183.267,104.017 183.529,104.068 183.667 C 104.118 183.804,104.330 184.189,104.538 184.521 C 104.746 184.854,105.099 185.435,105.322 185.813 C 105.545 186.191,105.789 186.500,105.864 186.500 C 105.939 186.500,106.000 186.585,106.000 186.688 C 106.000 187.002,108.311 189.620,109.482 190.632 C 110.088 191.155,110.608 191.640,110.639 191.708 C 110.669 191.777,110.797 191.833,110.922 191.833 C 111.048 191.833,111.210 191.930,111.283 192.048 C 111.357 192.166,111.792 192.502,112.250 192.794 C 112.708 193.086,113.158 193.385,113.250 193.460 C 113.931 194.012,117.602 195.557,118.917 195.845 C 119.283 195.925,119.996 196.118,120.500 196.272 C 121.328 196.526,123.074 196.560,138.540 196.623 L 155.662 196.692 156.981 199.305 C 158.932 203.172,160.897 206.992,162.096 209.250 C 162.680 210.350,163.206 211.381,163.265 211.542 C 163.380 211.854,172.500 212.011,172.500 211.701 C 172.500 211.628,172.285 211.160,172.022 210.659 C 171.759 210.159,171.185 209.037,170.746 208.167 C 170.307 207.296,169.810 206.384,169.641 206.141 C 169.472 205.898,169.332 205.598,169.330 205.474 C 169.328 205.351,169.179 205.063,169.000 204.833 C 168.821 204.604,168.671 204.304,168.667 204.167 C 168.663 204.029,168.513 203.729,168.333 203.500 C 168.154 203.271,168.006 202.952,168.004 202.792 C 168.002 202.631,167.940 202.500,167.868 202.500 C 167.795 202.500,167.450 201.919,167.101 201.208 C 166.334 199.649,165.712 198.474,165.088 197.409 L 164.621 196.614 166.977 196.714 L 169.333 196.815 169.333 192.660 L 169.333 188.506 164.975 188.461 L 160.617 188.417 160.064 187.417 C 159.760 186.867,159.231 185.835,158.888 185.125 C 158.545 184.415,158.205 183.833,158.132 183.833 C 158.060 183.833,157.998 183.702,157.996 183.542 C 157.994 183.381,157.846 183.063,157.667 182.833 C 157.487 182.604,157.337 182.304,157.333 182.167 C 157.329 182.029,157.179 181.729,157.000 181.500 C 156.821 181.271,156.672 180.982,156.670 180.859 C 156.668 180.736,156.529 180.436,156.361 180.192 C 156.193 179.949,155.525 178.700,154.878 177.417 C 154.231 176.133,153.075 173.846,152.308 172.333 L 150.915 169.583 149.083 169.480 C 148.075 169.422,141.719 169.366,134.958 169.355 L 122.667 169.333 122.667 173.265 L 122.667 177.197 133.991 177.148 L 145.316 177.099 145.658 177.534 C 145.846 177.774,146.000 178.082,146.000 178.221 C 146.000 178.359,146.063 178.497,146.141 178.528 C 146.296 178.589,147.286 180.350,148.328 182.417 C 148.917 183.585,150.422 186.445,151.223 187.917 L 151.495 188.417 137.123 188.461 C 123.130 188.503,122.721 188.496,121.641 188.169 C 121.031 187.984,120.444 187.833,120.336 187.833 C 119.784 187.833,116.258 185.857,115.950 185.375 C 115.877 185.260,115.737 185.167,115.640 185.167 C 115.392 185.167,112.667 182.332,112.667 182.074 C 112.667 181.957,112.607 181.836,112.535 181.806 C 112.314 181.712,111.438 180.299,111.054 179.417 C 108.652 173.891,109.202 168.786,112.731 163.858 C 113.866 162.272,116.550 159.833,117.160 159.833 C 117.255 159.833,117.333 159.776,117.333 159.706 C 117.333 159.591,118.485 159.018,120.230 158.264 C 121.933 157.529,122.573 157.506,142.182 157.503 L 160.781 157.500 161.045 156.958 C 161.190 156.660,161.625 155.742,162.012 154.917 C 162.706 153.436,162.859 153.114,163.146 152.542 C 163.750 151.336,164.500 149.650,164.500 149.497 C 164.500 149.395,161.951 144.184,158.834 137.916 C 153.574 127.336,152.979 126.000,153.532 126.000 C 153.768 126.000,156.121 123.559,157.000 122.403 C 157.412 121.860,157.792 121.379,157.845 121.333 C 157.898 121.287,157.993 121.138,158.057 121.000 C 158.120 120.862,158.389 120.412,158.655 120.000 C 161.815 115.094,163.169 107.036,161.666 102.083 C 161.499 101.533,161.326 100.896,161.281 100.667 C 161.186 100.175,160.584 98.471,160.241 97.725 C 160.109 97.436,160.000 97.158,160.000 97.107 C 160.000 96.911,158.307 94.080,158.158 94.028 C 158.071 93.997,158.000 93.898,158.000 93.806 C 158.000 93.136,152.857 88.000,152.185 88.000 C 152.083 88.000,152.000 87.927,152.000 87.837 C 152.000 87.747,151.719 87.520,151.375 87.333 C 151.031 87.145,150.450 86.805,150.083 86.576 C 149.717 86.347,149.304 86.118,149.167 86.068 C 149.029 86.017,148.785 85.906,148.625 85.821 C 146.913 84.914,145.138 84.317,142.667 83.817 C 140.380 83.353,136.891 83.249,135.167 83.592 M226.667 107.333 L 226.667 131.333 230.792 131.333 L 234.917 131.333 234.970 114.708 C 235.004 104.073,234.948 95.426,234.814 90.708 L 234.605 83.333 230.636 83.333 L 226.667 83.333 226.667 107.333 M246.000 107.323 L 246.000 131.339 265.375 131.294 C 286.694 131.246,285.163 131.316,288.457 130.232 C 290.222 129.652,293.835 127.850,293.972 127.482 C 294.003 127.400,294.101 127.333,294.189 127.333 C 294.967 127.333,300.667 121.634,300.667 120.856 C 300.667 120.767,300.738 120.669,300.824 120.639 C 301.022 120.569,302.471 118.028,302.946 116.917 C 303.605 115.375,304.000 114.291,304.002 114.019 C 304.003 113.871,304.167 113.263,304.365 112.667 C 304.876 111.135,304.919 104.012,304.428 102.417 C 304.258 101.867,304.063 101.154,303.993 100.833 C 303.637 99.190,302.364 96.436,301.057 94.482 C 300.613 93.818,300.175 93.159,300.083 93.016 C 299.992 92.874,299.836 92.681,299.737 92.587 C 299.639 92.493,299.202 91.990,298.767 91.468 C 298.001 90.550,295.348 88.152,294.947 88.017 C 294.839 87.980,294.712 87.897,294.667 87.833 C 294.581 87.713,293.345 86.902,292.750 86.575 C 291.965 86.144,291.369 85.835,290.667 85.493 C 289.301 84.828,287.053 84.138,284.917 83.728 C 283.564 83.468,281.577 83.433,264.708 83.373 L 246.000 83.307 246.000 107.323 M284.583 91.865 C 286.475 92.405,287.900 92.953,287.972 93.167 C 288.003 93.259,288.131 93.333,288.256 93.333 C 288.502 93.333,289.581 93.996,290.014 94.413 C 290.159 94.552,290.344 94.667,290.424 94.667 C 290.642 94.667,294.000 98.137,294.000 98.362 C 294.000 98.470,294.108 98.676,294.240 98.822 C 294.767 99.404,295.872 101.913,296.280 103.452 C 297.433 107.800,296.677 112.264,294.118 116.228 C 293.417 117.313,290.110 120.667,289.740 120.667 C 289.708 120.667,289.425 120.841,289.110 121.054 C 288.233 121.650,286.557 122.437,285.083 122.947 L 283.750 123.409 269.042 123.463 L 254.333 123.517 254.333 107.418 L 254.333 91.319 268.708 91.378 L 283.083 91.437 284.583 91.865 M142.591 91.947 C 143.320 92.178,144.067 92.431,144.250 92.509 C 145.381 92.993,145.817 93.205,146.365 93.541 C 147.587 94.288,149.599 96.007,150.333 96.932 C 150.746 97.451,151.207 98.009,151.358 98.171 C 151.509 98.333,151.929 99.018,152.290 99.691 C 155.532 105.735,154.879 111.950,150.343 118.208 C 149.667 119.141,149.575 119.163,149.201 118.488 C 149.044 118.206,148.785 117.819,148.624 117.628 C 148.464 117.437,147.386 115.361,146.231 113.015 C 145.075 110.669,143.969 108.431,143.773 108.042 L 143.417 107.333 140.750 107.332 C 139.283 107.332,137.350 107.283,136.454 107.224 L 134.826 107.116 137.885 113.266 C 139.568 116.649,141.331 120.204,141.803 121.167 L 142.661 122.917 141.956 123.128 C 138.780 124.080,135.045 123.637,131.333 121.868 C 130.829 121.628,130.379 121.387,130.333 121.332 C 130.287 121.278,129.897 121.030,129.465 120.780 C 127.608 119.708,124.702 116.477,123.816 114.500 C 123.713 114.271,123.534 113.896,123.418 113.667 C 122.272 111.401,121.858 105.932,122.651 103.520 C 122.843 102.935,123.000 102.386,123.000 102.301 C 123.000 100.995,126.286 96.407,128.323 94.868 C 129.016 94.345,129.621 93.875,129.667 93.824 C 129.817 93.658,132.833 92.149,132.833 92.240 C 132.833 92.289,133.227 92.185,133.708 92.010 C 134.942 91.561,134.925 91.562,138.258 91.544 C 141.034 91.530,141.368 91.561,142.591 91.947 M226.461 149.353 C 225.844 149.433,224.916 149.592,224.399 149.707 L 223.460 149.917 223.489 173.246 C 223.506 186.076,223.558 196.614,223.607 196.662 C 223.655 196.710,225.514 196.776,227.739 196.808 L 231.783 196.867 231.902 194.583 C 231.967 193.327,231.975 188.350,231.920 183.524 C 231.865 178.699,231.879 173.213,231.952 171.333 L 232.083 167.917 234.062 171.917 C 235.150 174.117,236.925 177.717,238.006 179.917 C 239.087 182.117,241.417 186.823,243.183 190.375 L 246.395 196.833 250.763 196.833 L 255.132 196.833 256.587 193.875 C 257.388 192.248,258.933 189.130,260.021 186.946 C 261.110 184.761,262.002 182.886,262.004 182.779 C 262.006 182.671,262.154 182.396,262.333 182.167 C 262.513 181.938,262.663 181.637,262.667 181.500 C 262.671 181.362,262.821 181.063,263.000 180.833 C 263.179 180.604,263.329 180.304,263.333 180.167 C 263.337 180.029,263.487 179.729,263.667 179.500 C 263.846 179.271,263.996 178.971,264.000 178.833 C 264.004 178.696,264.154 178.396,264.333 178.167 C 264.513 177.938,264.663 177.637,264.667 177.500 C 264.671 177.362,264.821 177.063,265.000 176.833 C 265.179 176.604,265.329 176.304,265.333 176.167 C 265.337 176.029,265.487 175.729,265.667 175.500 C 265.846 175.271,265.996 174.971,266.000 174.833 C 266.004 174.696,266.154 174.396,266.333 174.167 C 266.513 173.938,266.663 173.637,266.667 173.500 C 266.671 173.362,266.821 173.063,267.000 172.833 C 267.179 172.604,267.329 172.304,267.333 172.167 C 267.337 172.029,267.487 171.729,267.667 171.500 C 267.846 171.271,267.996 170.971,268.000 170.833 C 268.004 170.696,268.154 170.396,268.333 170.167 C 268.513 169.938,268.663 169.637,268.667 169.500 C 268.671 169.362,268.821 169.063,269.000 168.833 C 269.179 168.604,269.328 168.290,269.330 168.135 C 269.332 167.980,269.390 167.818,269.458 167.776 C 269.527 167.733,269.558 174.254,269.528 182.266 L 269.472 196.833 273.545 196.833 L 277.617 196.833 277.724 192.708 C 277.866 187.190,277.870 157.336,277.729 152.875 L 277.618 149.333 273.913 149.333 L 270.209 149.333 267.790 154.208 C 265.185 159.460,261.167 167.615,257.957 174.167 C 255.975 178.210,255.824 178.519,255.500 179.167 C 255.408 179.350,255.258 179.650,255.167 179.833 C 255.075 180.017,254.925 180.317,254.833 180.500 C 254.742 180.683,254.592 180.983,254.500 181.167 C 254.408 181.350,254.247 181.669,254.141 181.875 C 254.035 182.081,253.885 182.381,253.807 182.542 C 253.730 182.702,253.603 182.965,253.526 183.125 C 253.449 183.285,253.310 183.567,253.219 183.750 C 253.127 183.933,252.965 184.252,252.859 184.458 C 252.753 184.665,252.592 184.983,252.500 185.167 C 252.408 185.350,252.267 185.631,252.185 185.792 C 252.104 185.952,251.786 186.627,251.479 187.292 C 250.809 188.743,250.869 188.732,250.250 187.507 C 248.033 183.121,240.364 167.723,238.999 164.917 C 238.062 162.992,237.230 161.285,237.148 161.125 C 237.067 160.965,236.937 160.702,236.859 160.542 C 236.782 160.381,236.632 160.081,236.526 159.875 C 236.420 159.669,236.247 159.331,236.141 159.125 C 236.035 158.919,235.896 158.637,235.833 158.500 C 235.770 158.362,235.632 158.081,235.526 157.875 C 235.420 157.669,235.270 157.369,235.193 157.208 C 235.115 157.048,234.954 156.729,234.833 156.500 C 234.713 156.271,234.551 155.952,234.474 155.792 C 234.397 155.631,234.258 155.350,234.167 155.167 C 234.075 154.983,233.937 154.702,233.859 154.542 C 233.782 154.381,233.644 154.100,233.552 153.917 C 233.460 153.733,233.299 153.415,233.193 153.208 C 233.087 153.002,232.937 152.702,232.859 152.542 C 232.782 152.381,232.619 152.063,232.496 151.833 C 232.374 151.604,232.019 150.910,231.709 150.292 L 231.144 149.167 229.363 149.188 C 228.384 149.199,227.078 149.274,226.461 149.353 M190.837 151.375 C 189.863 153.594,188.880 155.771,188.257 157.083 C 188.039 157.542,187.621 158.442,187.327 159.083 C 187.033 159.725,186.495 160.887,186.131 161.667 C 185.767 162.446,185.279 163.496,185.046 164.000 C 184.599 164.965,184.455 165.264,184.141 165.875 C 184.035 166.081,183.896 166.362,183.833 166.500 C 183.770 166.637,183.642 166.900,183.549 167.083 C 183.456 167.267,182.912 168.392,182.341 169.583 C 181.770 170.775,180.868 172.650,180.337 173.750 C 179.072 176.367,177.461 179.728,176.623 181.500 C 176.254 182.279,175.876 183.067,175.783 183.250 C 175.691 183.433,175.563 183.696,175.500 183.833 C 175.437 183.971,175.287 184.271,175.167 184.500 C 174.917 184.975,174.869 185.076,174.290 186.333 C 172.506 190.204,172.214 190.841,171.656 192.083 C 171.115 193.286,171.070 193.382,170.880 193.750 C 170.482 194.519,169.681 196.421,169.669 196.625 C 169.668 196.648,171.528 196.667,173.803 196.667 L 177.939 196.667 179.788 192.875 C 180.806 190.790,182.100 188.108,182.665 186.917 C 183.229 185.725,183.980 184.150,184.334 183.417 C 184.687 182.683,185.329 181.333,185.761 180.417 C 186.641 178.549,188.251 175.174,189.577 172.417 C 190.062 171.408,190.810 169.852,191.240 168.958 C 192.179 167.005,192.017 167.022,192.852 168.792 C 193.230 169.594,194.025 171.262,194.619 172.500 C 195.212 173.737,195.999 175.387,196.367 176.167 C 196.735 176.946,197.324 178.183,197.676 178.917 C 198.341 180.299,199.607 182.964,201.338 186.625 C 202.284 188.625,202.946 189.992,205.253 194.708 L 206.211 196.667 210.175 196.667 C 212.355 196.667,214.258 196.712,214.403 196.768 C 214.827 196.930,214.722 196.471,214.013 195.055 C 213.653 194.337,212.892 192.775,212.323 191.583 C 211.205 189.244,211.099 189.026,210.807 188.458 C 210.701 188.252,210.551 187.952,210.474 187.792 C 210.397 187.631,210.269 187.369,210.191 187.208 C 209.954 186.724,208.751 184.189,207.917 182.417 C 207.486 181.500,206.866 180.188,206.540 179.500 C 206.051 178.470,205.021 176.279,204.502 175.167 C 204.438 175.029,204.306 174.767,204.210 174.583 C 204.113 174.400,203.726 173.594,203.350 172.792 C 201.749 169.375,201.263 168.344,200.661 167.083 C 200.310 166.350,199.560 164.775,198.994 163.583 C 197.888 161.255,197.819 161.112,197.526 160.542 C 197.420 160.335,197.258 160.017,197.167 159.833 C 197.075 159.650,196.934 159.369,196.852 159.208 C 196.771 159.048,195.641 156.760,194.342 154.125 C 193.042 151.490,191.923 149.333,191.856 149.333 C 191.788 149.333,191.329 150.252,190.837 151.375 M288.667 173.083 L 288.667 196.833 312.250 196.833 L 335.833 196.833 335.833 192.667 L 335.833 188.500 316.167 188.500 L 296.500 188.500 296.500 173.000 L 296.500 157.500 316.167 157.500 L 335.833 157.500 335.833 153.417 L 335.833 149.333 312.250 149.333 L 288.667 149.333 288.667 173.083 M314.631 172.917 L 314.583 176.834 325.208 176.833 C 332.181 176.833,335.833 176.891,335.833 177.000 C 335.833 177.110,340.500 177.167,349.500 177.167 L 363.167 177.167 363.167 173.083 L 363.167 169.000 338.923 169.000 L 314.678 169.000 314.631 172.917 " stroke="none" fill="#fcfcfc" fill-rule="evenodd"></path><path id="path1" d="M134.917 91.626 C 134.733 91.662,134.190 91.835,133.708 92.010 C 133.227 92.185,132.833 92.289,132.833 92.240 C 132.833 92.149,129.817 93.658,129.667 93.824 C 129.621 93.875,129.016 94.345,128.323 94.868 C 126.286 96.407,123.000 100.995,123.000 102.301 C 123.000 102.386,122.843 102.935,122.651 103.520 C 121.858 105.932,122.272 111.401,123.418 113.667 C 123.534 113.896,123.713 114.271,123.816 114.500 C 124.702 116.477,127.608 119.708,129.465 120.780 C 129.897 121.030,130.287 121.278,130.333 121.332 C 130.379 121.387,130.829 121.628,131.333 121.868 C 135.045 123.637,138.780 124.080,141.956 123.128 L 142.661 122.917 141.803 121.167 C 141.331 120.204,139.568 116.649,137.885 113.266 L 134.826 107.116 136.454 107.224 C 137.350 107.283,139.283 107.332,140.750 107.332 L 143.417 107.333 143.773 108.042 C 143.969 108.431,145.075 110.669,146.231 113.015 C 147.386 115.361,148.464 117.437,148.624 117.628 C 148.785 117.819,149.044 118.206,149.201 118.488 C 149.575 119.163,149.667 119.141,150.343 118.208 C 154.879 111.950,155.532 105.735,152.290 99.691 C 151.929 99.018,151.509 98.333,151.358 98.171 C 151.207 98.009,150.746 97.451,150.333 96.932 C 149.599 96.007,147.587 94.288,146.365 93.541 C 145.817 93.205,145.381 92.993,144.250 92.509 C 142.213 91.638,137.250 91.169,134.917 91.626 M296.500 173.000 L 296.500 188.500 316.250 188.500 L 336.000 188.500 336.000 182.930 C 336.000 179.867,335.954 177.242,335.899 177.097 C 335.808 176.860,334.709 176.833,325.191 176.833 L 314.583 176.834 314.631 172.917 L 314.678 169.000 325.256 169.000 L 335.833 169.000 335.833 163.250 L 335.833 157.500 316.167 157.500 L 296.500 157.500 296.500 173.000 M191.240 168.958 C 190.810 169.852,190.062 171.408,189.577 172.417 C 188.327 175.017,186.679 178.469,185.759 180.417 C 185.326 181.333,184.651 182.758,184.258 183.583 C 183.865 184.408,183.240 185.721,182.869 186.500 C 182.498 187.279,181.251 189.857,180.097 192.229 C 178.944 194.601,178.000 196.570,178.000 196.604 C 178.000 196.639,184.344 196.667,192.097 196.667 C 199.851 196.667,206.169 196.608,206.139 196.537 C 206.084 196.409,205.249 194.693,203.321 190.750 C 202.784 189.650,201.891 187.794,201.338 186.625 C 199.607 182.964,198.341 180.299,197.676 178.917 C 197.324 178.183,196.735 176.946,196.367 176.167 C 195.999 175.387,195.212 173.737,194.619 172.500 C 194.025 171.262,193.230 169.594,192.852 168.792 C 192.017 167.022,192.179 167.005,191.240 168.958 " stroke="none" fill="#ea1b73" fill-rule="evenodd"></path></g></svg>