<svg width="80" height="40" viewBox="0 0 80 40" fill="none" xmlns="http://www.w3.org/2000/svg">
<g clip-path="url(#clip0_13_13)">
<path fill-rule="evenodd" clip-rule="evenodd" d="M42.0621 6.80462C42.0621 11.3763 42.0479 13.7357 42.0185 13.9941C41.9719 14.4031 41.8004 15.0836 41.7088 15.2225C41.6786 15.2683 41.6539 15.338 41.6539 15.3778C41.6539 15.4173 41.6292 15.4753 41.5988 15.5068C41.5686 15.5379 41.5113 15.6342 41.4716 15.7209C41.4319 15.8073 41.3832 15.8782 41.3633 15.8782C41.3435 15.8782 41.327 15.9002 41.327 15.9274C41.327 15.9545 41.2991 16.0067 41.2648 16.0434C41.2307 16.0804 41.1112 16.2091 40.9992 16.33C40.749 16.6001 40.3739 16.9193 40.2649 16.955C40.2203 16.9697 40.1838 16.9994 40.1838 17.0212C40.1838 17.0427 40.1507 17.0604 40.1103 17.0604C40.0698 17.0604 40.0184 17.0795 39.9961 17.1025C39.5893 17.5231 37.7747 17.6354 37.0132 17.2872C36.5381 17.0698 36.1357 16.8352 36.1068 16.7587C36.0992 16.7389 36.0757 16.7227 36.0541 16.7227C36.0326 16.7227 35.9387 16.6467 35.8451 16.5537C35.7515 16.461 35.6604 16.385 35.6425 16.385C35.6246 16.385 35.6099 16.3644 35.6099 16.3393C35.6099 16.3143 35.5558 16.238 35.4899 16.1696C35.2042 15.8744 34.8501 15.17 34.7141 14.6263C34.6301 14.2901 34.6281 14.2052 34.6293 10.8573L34.6306 7.43223H33.5887H32.5471V10.7079C32.5471 14.7086 32.5942 15.1748 33.0999 16.1736C33.1293 16.2319 33.1648 16.3077 33.1788 16.3426C33.2161 16.4351 33.365 16.6847 33.5169 16.9102C33.59 17.0184 33.6497 17.1187 33.6497 17.1329C33.6497 17.1474 33.6767 17.1892 33.7098 17.2259C34.5551 18.1669 34.8785 18.4664 35.3852 18.7778C35.5445 18.8754 36.296 19.2564 36.3298 19.2564C36.3484 19.2564 36.456 19.2929 36.5687 19.3378C37.1693 19.5757 38.7734 19.6996 39.2987 19.5488C39.3847 19.5243 39.5685 19.4784 39.7069 19.447C39.9767 19.3857 40.3594 19.2539 40.592 19.1419C40.8889 18.999 41.1455 18.8624 41.2045 18.8156C41.2383 18.789 41.3165 18.7411 41.3783 18.7092C41.44 18.6772 41.4905 18.6352 41.4905 18.6159C41.4905 18.5967 41.5098 18.5807 41.5336 18.5807C41.6652 18.5807 42.4718 17.8236 42.7933 17.3985C42.9074 17.2474 43.0238 17.0962 43.0522 17.062C43.1147 16.987 43.1353 16.9512 43.3745 16.5056C43.6785 15.9388 43.8498 15.4652 43.9833 14.8224C44.075 14.3813 44.0983 12.7077 44.1012 6.36603L44.1041 0H43.0831H42.0621V6.80462ZM8.3102 7.49861C8.17544 7.5313 8.00098 7.57032 7.92233 7.58552C7.84368 7.60072 7.71112 7.64861 7.62781 7.69168C7.5445 7.73476 7.45262 7.77048 7.42371 7.77099C7.39479 7.7715 7.32521 7.80925 7.26885 7.8546C7.21274 7.89996 7.13458 7.93771 7.09538 7.93822C7.05617 7.93872 7.02383 7.95367 7.02383 7.97141C7.02383 7.98914 6.95032 8.05046 6.86064 8.10798C6.77072 8.16549 6.69721 8.22681 6.69721 8.24455C6.69721 8.26228 6.67688 8.27698 6.65188 8.27698C6.42695 8.27698 5.73501 9.32316 5.49292 10.0293C5.22144 10.8224 5.5287 12.3049 6.09495 12.933C6.15669 13.0016 6.20717 13.066 6.20717 13.0764C6.20717 13.1159 6.6139 13.5132 6.65433 13.5132C6.67786 13.5132 6.69721 13.5309 6.69721 13.5525C6.69721 13.612 7.02187 13.8261 7.37887 14.0022C8.02548 14.3212 8.05538 14.3238 11.4752 14.3529L14.5176 14.379L14.7421 14.49C15.5648 14.8964 15.9167 16.0857 15.4296 16.8137C15.3884 16.8752 15.3546 16.9424 15.3546 16.9626C15.3546 16.9829 15.3225 17.0313 15.2833 17.0701C15.2439 17.1091 15.1877 17.1653 15.1586 17.1958C15.1294 17.2259 15.0748 17.2839 15.0373 17.3245C14.9998 17.365 14.953 17.3985 14.9334 17.3985C14.9138 17.3985 14.8403 17.4405 14.7702 17.4922C14.5833 17.6298 13.8232 17.644 6.38064 17.6483L0 17.6518V18.623V19.5942L7.32006 19.5937C13.8225 19.5934 14.6651 19.5858 14.8646 19.5276C14.9881 19.4913 15.1444 19.4462 15.2118 19.4272C15.3424 19.3902 15.7305 19.207 15.8638 19.1194C16.5038 18.6978 16.9375 18.2184 17.2305 17.6093C17.303 17.4585 17.378 17.3039 17.3971 17.2662C17.6686 16.7298 17.6595 15.2623 17.3812 14.7058C17.3447 14.6329 17.3148 14.5531 17.3148 14.5282C17.3148 14.4629 17.0364 13.9703 16.886 13.7699C16.7806 13.6295 16.3859 13.2211 16.2499 13.1121C16.0561 12.9568 15.5798 12.6687 15.5166 12.6687C15.4928 12.6687 15.4154 12.6378 15.3446 12.6C14.9273 12.3768 14.7325 12.3634 11.4955 12.3353L8.47363 12.3089L8.23351 12.2063C7.99289 12.1037 7.51387 11.6818 7.51387 11.5726C7.51387 11.544 7.47418 11.4627 7.42567 11.3922C7.13531 10.9706 7.42444 10.0719 7.97427 9.68624C8.0691 9.61961 8.15682 9.5512 8.16907 9.53422C8.18132 9.5175 8.30995 9.46023 8.45501 9.40753L8.71865 9.3115L12.6084 9.3001L16.4981 9.2887V8.36059V7.43223L12.5268 7.43577C9.27118 7.43882 8.51112 7.44996 8.3102 7.49861ZM24.1348 7.49785C23.9662 7.53231 23.7366 7.57766 23.6241 7.59844C23.5119 7.61922 23.3372 7.66584 23.2363 7.70258C23.1351 7.73906 23.0292 7.76922 23.001 7.76947C22.9016 7.77074 22.0425 8.1921 21.8164 8.35071C21.7419 8.40316 21.672 8.44572 21.661 8.44572C21.4978 8.44572 20.3298 9.63253 20.0605 10.0719C19.9057 10.3245 19.8474 10.4144 19.8084 10.4606C19.7846 10.4884 19.765 10.5396 19.765 10.5741C19.765 10.6085 19.7474 10.6481 19.7256 10.662C19.6847 10.6881 19.4394 11.1964 19.4369 11.26C19.4362 11.28 19.4002 11.3722 19.3568 11.4652C19.3134 11.5582 19.2772 11.6636 19.2764 11.6998C19.2757 11.736 19.2402 11.8784 19.1978 12.0165C18.9616 12.7837 18.9714 14.5457 19.2152 15.1492C19.248 15.2306 19.275 15.3294 19.275 15.3687C19.275 15.4079 19.3117 15.5187 19.3568 15.6147C19.4017 15.711 19.4384 15.8085 19.4384 15.8318C19.4384 15.8947 19.8525 16.6994 19.8934 16.7156C19.9125 16.7235 19.9285 16.748 19.9285 16.7701C19.9285 16.8712 20.432 17.533 20.7657 17.87C21.2082 18.3169 21.8328 18.8027 22.0927 18.9015C22.1266 18.9144 22.1863 18.9425 22.2255 18.9638C22.5311 19.1313 22.7969 19.2564 22.8467 19.2564C22.8753 19.2564 22.9883 19.2924 23.0981 19.3365C23.9544 19.6801 25.5184 19.6912 26.6869 19.3618C26.7666 19.3393 26.9525 19.5623 26.9525 19.6801C26.9525 19.7047 27.0243 19.8711 27.112 20.0503C27.1998 20.2291 27.386 20.6226 27.5259 20.9244C27.9701 21.8822 28.9431 23.8932 29.0107 23.9933C29.0467 24.046 29.0759 24.1025 29.0759 24.1182C29.0759 24.1342 27.298 24.1562 25.1249 24.1673C20.9737 24.1881 20.7189 24.1995 20.1029 24.3875C19.6753 24.518 18.9981 24.8031 18.9484 24.8738C18.9371 24.8897 18.8589 24.9361 18.7749 24.9771C18.6906 25.0179 18.6217 25.0683 18.6217 25.0889C18.6217 25.1094 18.6031 25.1264 18.5801 25.1264C18.5201 25.1264 17.9683 25.5482 17.9683 25.5941C17.9683 25.6156 17.9492 25.6331 17.9261 25.6331C17.871 25.6331 17.3148 26.208 17.3148 26.265C17.3148 26.2891 17.2971 26.3086 17.2756 26.3086C17.242 26.3086 17.0467 26.5747 16.8247 26.923C15.8954 28.3817 15.6224 30.2144 16.0985 31.7985C16.2088 32.1654 16.331 32.4833 16.4479 32.7063C16.4722 32.7529 16.5023 32.8193 16.5148 32.8543C16.527 32.889 16.579 32.9865 16.63 33.0707C16.6809 33.155 16.7674 33.3022 16.8221 33.398C16.8767 33.4938 16.9365 33.5721 16.9549 33.5721C16.9732 33.5721 16.9882 33.5936 16.9882 33.6197C16.9882 33.6993 17.5544 34.3626 17.8413 34.619C17.9898 34.7515 18.1172 34.8744 18.1248 34.8917C18.1322 34.9091 18.1636 34.9233 18.1942 34.9233C18.2251 34.9233 18.2647 34.9479 18.2826 34.9778C18.3008 35.0077 18.4074 35.0928 18.5196 35.1668C18.6318 35.2408 18.7421 35.3166 18.7646 35.3356C18.9315 35.4754 19.8309 35.8669 20.1531 35.9399C20.2428 35.9601 20.4175 36.009 20.541 36.0481C20.7439 36.1124 21.1717 36.121 24.9612 36.137L29.1565 36.1545L29.4797 36.8165C29.9577 37.7963 30.4392 38.7642 30.733 39.3364C30.8761 39.6151 31.005 39.8763 31.0194 39.9171C31.0476 39.9961 33.2822 40.0359 33.2822 39.9574C33.2822 39.9389 33.2295 39.8203 33.1651 39.6934C33.1006 39.5667 32.96 39.2824 32.8524 39.062C32.7449 38.8413 32.6231 38.6102 32.5817 38.5486C32.5403 38.487 32.506 38.411 32.5055 38.3796C32.505 38.3484 32.4685 38.2755 32.4246 38.2172C32.3808 38.1592 32.344 38.0832 32.343 38.0485C32.3421 38.0135 32.3053 37.9375 32.2612 37.8795C32.2173 37.8214 32.1811 37.7406 32.1806 37.7001C32.1801 37.6593 32.1649 37.6261 32.1473 37.6261C32.1294 37.6261 32.0448 37.4789 31.9593 37.2987C31.7714 36.9037 31.619 36.606 31.4661 36.3362L31.3517 36.1347L31.9289 36.1601L32.5062 36.1856V35.1329V34.0804L31.4384 34.069L30.3706 34.0578L30.2351 33.8044C30.1606 33.6651 30.031 33.4036 29.947 33.2237C29.8629 33.0438 29.7796 32.8963 29.7617 32.8963C29.7441 32.8963 29.7289 32.8632 29.7284 32.8226C29.7279 32.7818 29.6916 32.7012 29.6478 32.643C29.6037 32.5849 29.5669 32.5089 29.5659 32.4742C29.565 32.4393 29.5282 32.3632 29.4843 32.3052C29.4405 32.2472 29.404 32.174 29.4035 32.1428C29.403 32.1116 29.3689 32.0356 29.3278 31.9738C29.2866 31.9122 29.1229 31.5958 28.9644 31.2707C28.8059 30.9454 28.5226 30.3659 28.3347 29.9825L27.9934 29.2858L27.5445 29.2597C27.2975 29.245 25.7402 29.2308 24.0836 29.228L21.072 29.2224V30.2187V31.215L23.8466 31.2025L26.6215 31.1901L26.7053 31.3003C26.7514 31.3611 26.7891 31.4392 26.7891 31.4744C26.7891 31.5094 26.8045 31.5443 26.8236 31.5522C26.8616 31.5676 27.1042 32.0138 27.3595 32.5376C27.5038 32.8335 27.8726 33.5582 28.0689 33.9311L28.1355 34.0578L24.614 34.069C21.1854 34.0796 21.0852 34.0778 20.8206 33.995C20.6711 33.9481 20.5273 33.9098 20.5008 33.9098C20.3656 33.9098 19.5016 33.4092 19.4262 33.287C19.4083 33.2579 19.374 33.2343 19.3502 33.2343C19.2894 33.2343 18.6217 32.516 18.6217 32.4507C18.6217 32.421 18.607 32.3904 18.5894 32.3828C18.5353 32.3589 18.3206 32.0009 18.2265 31.7774C17.638 30.3773 17.7727 29.0838 18.6374 27.8352C18.9155 27.4333 19.5732 26.8154 19.7226 26.8154C19.7459 26.8154 19.765 26.8009 19.765 26.7832C19.765 26.754 20.0473 26.6089 20.4749 26.4178C20.8921 26.2316 21.0489 26.2258 25.8536 26.225L30.4108 26.2242L30.4755 26.0869C30.511 26.0114 30.6176 25.7788 30.7124 25.5698C30.8824 25.1945 30.9199 25.1129 30.9903 24.968C31.1383 24.6624 31.322 24.2352 31.322 24.1965C31.322 24.1706 30.6975 22.8503 29.9337 21.2622C28.6449 18.5815 28.4991 18.2429 28.6346 18.2429C28.6924 18.2429 29.269 17.6245 29.4843 17.3316C29.5853 17.194 29.6784 17.0721 29.6914 17.0604C29.7044 17.0488 29.7277 17.011 29.7433 16.9761C29.7588 16.9411 29.8247 16.8271 29.8899 16.7227C30.6641 15.4796 30.9959 13.438 30.6276 12.183C30.5867 12.0436 30.5443 11.8822 30.5333 11.8242C30.51 11.6996 30.3625 11.2678 30.2785 11.0788C30.2461 11.0056 30.2194 10.9351 30.2194 10.9222C30.2194 10.8725 29.8046 10.1552 29.7681 10.1421C29.7468 10.1342 29.7294 10.1091 29.7294 10.0858C29.7294 9.91606 28.4692 8.61473 28.3046 8.61473C28.2796 8.61473 28.2592 8.59623 28.2592 8.57343C28.2592 8.55062 28.1904 8.49311 28.1061 8.44572C28.0218 8.39809 27.8794 8.31194 27.7895 8.25392C27.6998 8.1959 27.5987 8.13788 27.5651 8.12521C27.5313 8.11228 27.4715 8.08416 27.4323 8.06262C27.0128 7.83281 26.5779 7.68155 25.9724 7.55486C25.4121 7.4373 24.5572 7.41094 24.1348 7.49785ZM46.5544 13.5132V19.5942H47.5651H48.5758L48.5888 15.3818C48.5971 12.6872 48.5834 10.4963 48.5506 9.30086L48.4994 7.43223H47.5269H46.5544V13.5132ZM51.2914 13.5107V19.5957L56.0387 19.5843C61.2624 19.5722 60.8872 19.5899 61.6943 19.3152C62.1268 19.1683 63.0121 18.7117 63.0456 18.6185C63.0532 18.5977 63.0772 18.5807 63.0988 18.5807C63.2894 18.5807 64.6861 17.1367 64.6861 16.9396C64.6861 16.917 64.7035 16.8922 64.7245 16.8846C64.773 16.8669 65.1281 16.223 65.2445 15.9415C65.4059 15.5508 65.5027 15.2762 65.5032 15.2073C65.5035 15.1698 65.5436 15.0157 65.5922 14.8647C65.7174 14.4765 65.7279 12.6718 65.6076 12.2676C65.5659 12.1283 65.5182 11.9476 65.501 11.8663C65.4138 11.45 65.1019 10.7522 64.7816 10.2571C64.6728 10.0889 64.5655 9.92188 64.543 9.88565C64.5207 9.84967 64.4825 9.80077 64.4582 9.77695C64.4342 9.75314 64.3271 9.62569 64.2205 9.49343C64.0328 9.26083 63.3828 8.65324 63.2845 8.61903C63.2581 8.60966 63.227 8.58863 63.2159 8.57241C63.1949 8.54201 62.892 8.33652 62.7462 8.25367C62.5539 8.14446 62.4078 8.06617 62.2358 7.97952C61.9011 7.81102 61.3503 7.63619 60.827 7.53231C60.4954 7.46643 60.0086 7.45757 55.8753 7.44236L51.2914 7.42564V13.5107ZM60.7451 9.59402C61.2087 9.73084 61.5579 9.86969 61.5755 9.92391C61.5831 9.94722 61.6145 9.96597 61.6451 9.96597C61.7054 9.96597 61.9697 10.134 62.0758 10.2396C62.1114 10.2748 62.1567 10.304 62.1763 10.304C62.2297 10.304 63.0525 11.1832 63.0525 11.2402C63.0525 11.2676 63.079 11.3197 63.1113 11.3567C63.2404 11.5042 63.5112 12.1399 63.6111 12.5299C63.8937 13.6315 63.7084 14.7626 63.0814 15.767C62.9097 16.0419 62.0994 16.8917 62.0087 16.8917C62.0009 16.8917 61.9315 16.9358 61.8543 16.9898C61.6394 17.1408 61.2288 17.3402 60.8676 17.4694L60.541 17.5865L56.9372 17.6001L53.3332 17.6138V13.5347V9.45568L56.8554 9.47062L60.3776 9.48557L60.7451 9.59402ZM25.9538 9.61479C26.1324 9.67332 26.3155 9.73743 26.3603 9.75719C26.6374 9.87982 26.7443 9.93354 26.8785 10.0187C27.1779 10.2079 27.6709 10.6435 27.8508 10.8779C27.952 11.0094 28.0649 11.1507 28.1019 11.1918C28.1389 11.2328 28.2418 11.4064 28.3303 11.5769C29.1247 13.1083 28.9647 14.683 27.8532 16.2687C27.6876 16.5051 27.6651 16.5106 27.5734 16.3396C27.5349 16.2681 27.4715 16.1701 27.432 16.1217C27.3928 16.0733 27.1287 15.5473 26.8457 14.9529C26.5625 14.3585 26.2915 13.7914 26.2434 13.6929L26.1562 13.5132L25.5027 13.513C25.1433 13.513 24.6696 13.5005 24.4501 13.4856L24.0512 13.4582L24.8007 15.0165C25.2131 15.8736 25.6451 16.7744 25.7607 17.0184L25.971 17.4618L25.7982 17.5153C25.02 17.7565 24.1049 17.6442 23.1953 17.196C23.0719 17.1352 22.9616 17.0741 22.9503 17.0602C22.939 17.0465 22.8435 16.9837 22.7376 16.9203C22.2826 16.6487 21.5706 15.8301 21.3535 15.3291C21.3283 15.2711 21.2844 15.1761 21.256 15.1181C20.9752 14.5439 20.8738 13.1582 21.0681 12.5471C21.1151 12.3989 21.1536 12.2598 21.1536 12.2382C21.1536 11.9073 21.9587 10.7448 22.4578 10.3549C22.6276 10.2224 22.7759 10.1033 22.7871 10.0904C22.8239 10.0483 23.5629 9.66597 23.5629 9.68903C23.5629 9.70145 23.6594 9.6751 23.7773 9.63076C24.0796 9.51699 24.0755 9.51724 24.8921 9.51268C25.5723 9.50914 25.6542 9.51699 25.9538 9.61479ZM46.5039 24.16C46.3527 24.1803 46.1253 24.2206 45.9986 24.2497L45.7686 24.3029L45.7757 30.2139C45.7798 33.4647 45.7926 36.1347 45.8046 36.1469C45.8164 36.159 46.2719 36.1758 46.817 36.1839L47.8079 36.1988L47.8371 35.6201C47.853 35.3019 47.8549 34.0408 47.8415 32.8181C47.828 31.5955 47.8314 30.2055 47.8493 29.7292L47.8814 28.8636L48.3663 29.8771C48.6329 30.4346 49.0678 31.3467 49.3327 31.9041C49.5975 32.4616 50.1684 33.6539 50.6012 34.5539L51.3882 36.1902H52.4584H53.5289L53.8855 35.4407C54.0817 35.0285 54.4603 34.2385 54.7269 33.6851C54.9937 33.1315 55.2123 32.6564 55.2127 32.6293C55.2132 32.6019 55.2495 32.5322 55.2934 32.4742C55.3375 32.4162 55.3742 32.3399 55.3752 32.3052C55.3762 32.2703 55.4129 32.1945 55.4568 32.1362C55.5006 32.0782 55.5374 32.0022 55.5384 31.9675C55.5394 31.9325 55.5761 31.8565 55.6202 31.7985C55.6641 31.7404 55.7008 31.6644 55.7018 31.6295C55.7028 31.5948 55.7395 31.5187 55.7834 31.4607C55.8275 31.4027 55.8643 31.3264 55.8652 31.2917C55.8662 31.2568 55.903 31.181 55.9468 31.1227C55.9907 31.0647 56.0274 30.9887 56.0284 30.954C56.0294 30.919 56.0662 30.843 56.1103 30.785C56.1541 30.727 56.1909 30.6509 56.1919 30.616C56.1928 30.5813 56.2296 30.5053 56.2734 30.4472C56.3176 30.3892 56.3543 30.3129 56.3553 30.2782C56.3563 30.2433 56.393 30.1675 56.4369 30.1092C56.4807 30.0512 56.5175 29.9752 56.5185 29.9405C56.5195 29.9055 56.5562 29.8295 56.6003 29.7715C56.6442 29.7135 56.6809 29.6374 56.6819 29.6025C56.6829 29.5678 56.7196 29.4918 56.7635 29.4337C56.8076 29.3757 56.8443 29.2994 56.8453 29.2647C56.8463 29.2298 56.8831 29.154 56.9269 29.0957C56.9708 29.0377 57.0073 28.9581 57.0078 28.9189C57.0083 28.8796 57.0225 28.8386 57.0391 28.8279C57.0561 28.817 57.0636 30.4693 57.0563 32.4993L57.0426 36.1902H58.0406H59.0383L59.0645 35.145C59.0993 33.7469 59.1003 26.1827 59.0657 25.0524L59.0385 24.1549H58.1307H57.2232L56.6304 25.3901C55.9922 26.7208 55.0077 28.7871 54.2211 30.4472C53.7355 31.4716 53.6985 31.5499 53.6191 31.7141C53.5966 31.7605 53.5598 31.8365 53.5375 31.8828C53.515 31.9295 53.4782 32.0055 53.4557 32.0518C53.4334 32.0982 53.3966 32.1742 53.3741 32.2208C53.3515 32.2672 53.3121 32.348 53.2861 32.4002C53.2602 32.4524 53.2234 32.5284 53.2043 32.5692C53.1854 32.6098 53.1543 32.6764 53.1354 32.717C53.1166 32.7575 53.0825 32.8289 53.0602 32.8753C53.0377 32.9217 52.998 33.0025 52.972 33.0547C52.946 33.1071 52.9066 33.1877 52.884 33.2343C52.8615 33.2807 52.827 33.3519 52.8069 33.3927C52.787 33.4332 52.7091 33.6043 52.6339 33.7728C52.4697 34.1404 52.4844 34.1376 52.3327 33.8272C51.7895 32.7159 49.9104 28.8145 49.576 28.1035C49.3464 27.6158 49.1425 27.1833 49.1224 27.1427C49.1026 27.1022 49.0707 27.0355 49.0516 26.995C49.0328 26.9542 48.996 26.8782 48.97 26.826C48.9441 26.7738 48.9017 26.6882 48.8757 26.636C48.8497 26.5838 48.8157 26.5123 48.8002 26.4776C48.7848 26.4426 48.751 26.3714 48.725 26.3193C48.6991 26.2671 48.6623 26.191 48.6434 26.1503C48.6243 26.1097 48.5849 26.0289 48.5552 25.9709C48.5258 25.9128 48.4861 25.832 48.4673 25.7915C48.4484 25.7507 48.4143 25.6795 48.392 25.6331C48.3695 25.5865 48.3357 25.5153 48.3166 25.4748C48.2977 25.434 48.2639 25.3628 48.2413 25.3164C48.2188 25.2698 48.1794 25.1892 48.1534 25.1368C48.1274 25.0846 48.0907 25.0086 48.0715 24.968C48.0527 24.9272 48.0127 24.8466 47.9826 24.7884C47.9527 24.7303 47.8657 24.5545 47.7898 24.3979L47.6513 24.1129L47.215 24.1182C46.9751 24.121 46.6551 24.14 46.5039 24.16ZM37.7752 24.6723C37.5365 25.2346 37.2957 25.7862 37.143 26.1186C37.0896 26.2349 36.9872 26.4629 36.9152 26.6253C36.8431 26.788 36.7113 27.0824 36.6221 27.2801C36.5329 27.4774 36.4134 27.7435 36.3563 27.8712C36.2467 28.1157 36.2115 28.1914 36.1345 28.3462C36.1085 28.3984 36.0745 28.4696 36.059 28.5046C36.0436 28.5393 36.0122 28.606 35.9895 28.6523C35.9667 28.6989 35.8334 28.984 35.6935 29.2858C35.5536 29.5878 35.3326 30.0629 35.2025 30.3416C34.8925 31.0047 34.4978 31.8562 34.2924 32.3052C34.202 32.5026 34.1094 32.7023 34.0866 32.7486C34.0641 32.795 34.0327 32.8616 34.0173 32.8963C34.0018 32.9313 33.9651 33.0073 33.9357 33.0653C33.8744 33.1857 33.8627 33.2113 33.7208 33.5298C33.2837 34.5106 33.2121 34.672 33.0754 34.9867C32.9429 35.2915 32.9318 35.3158 32.8853 35.4091C32.7878 35.6039 32.5915 36.0858 32.5885 36.1375C32.5883 36.1433 33.044 36.1482 33.6015 36.1482H34.6149L35.0679 35.1874C35.3174 34.6591 35.6344 33.9795 35.7729 33.6777C35.9111 33.3757 36.0951 32.9767 36.1818 32.7909C36.2683 32.605 36.4256 32.2629 36.5315 32.0308C36.7471 31.5575 37.1416 30.7024 37.4665 30.0038C37.5853 29.7482 37.7686 29.3539 37.8739 29.1274C38.104 28.6326 38.0643 28.6369 38.2689 29.0853C38.3615 29.2885 38.5563 29.7112 38.7019 30.0249C38.8472 30.3383 39.04 30.7563 39.1302 30.954C39.2203 31.1514 39.3647 31.4648 39.4509 31.6508C39.6138 32.0009 39.924 32.6762 40.3482 33.6038C40.58 34.1105 40.7422 34.4569 41.3074 35.6518L41.5422 36.1482H42.5134C43.0476 36.1482 43.5139 36.1595 43.5494 36.1737C43.6533 36.2148 43.6276 36.0985 43.4538 35.7397C43.3656 35.5578 43.1792 35.162 43.0398 34.86C42.7658 34.2673 42.7398 34.2121 42.6683 34.0682C42.6423 34.016 42.6056 33.94 42.5867 33.8995C42.5678 33.8587 42.5365 33.7923 42.5174 33.7515C42.4593 33.6288 42.1645 32.9865 41.9602 32.5376C41.8546 32.3052 41.7027 31.9728 41.6228 31.7985C41.503 31.5375 41.2506 30.9824 41.1234 30.7006C41.1077 30.6656 41.0754 30.5992 41.0519 30.5526C41.0281 30.5063 40.9333 30.302 40.8412 30.0988C40.4489 29.2331 40.3298 28.9718 40.1823 28.6523C40.0963 28.4666 39.9125 28.0675 39.7738 27.7655C39.5028 27.1757 39.4859 27.1394 39.4142 26.995C39.3882 26.9426 39.3485 26.862 39.3262 26.8154C39.3036 26.769 39.2691 26.6978 39.249 26.657C39.2292 26.6165 38.9523 26.0367 38.634 25.3691C38.3155 24.7015 38.0413 24.1549 38.0249 24.1549C38.0082 24.1549 37.8957 24.3878 37.7752 24.6723ZM61.7458 30.1726V36.1902H67.5242H73.3025V35.1347V34.0788H68.4839H63.6651V30.1515V26.2242H68.4839H73.3025V25.1897V24.1549H67.5242H61.7458V30.1726ZM68.1076 30.1305L68.0958 31.123L70.6992 31.1227C72.4077 31.1227 73.3025 31.1374 73.3025 31.165C73.3025 31.1929 74.4461 31.2074 76.6513 31.2074H80V30.1726V29.138H74.0597H68.1191L68.1076 30.1305Z" fill="#FCFCFC"/>
<path fill-rule="evenodd" clip-rule="evenodd" d="M24.0735 9.53344C24.0284 9.54256 23.8954 9.5864 23.7773 9.63074C23.6594 9.67508 23.5629 9.70143 23.5629 9.68901C23.5629 9.66595 22.8239 10.0483 22.7872 10.0904C22.7759 10.1033 22.6276 10.2224 22.4578 10.3549C21.9587 10.7448 21.1536 11.9073 21.1536 12.2382C21.1536 12.2597 21.1151 12.3988 21.0681 12.5471C20.8738 13.1582 20.9752 14.5439 21.256 15.1181C21.2844 15.1761 21.3283 15.2711 21.3535 15.3291C21.5706 15.83 22.2827 16.6487 22.7377 16.9203C22.8435 16.9837 22.9391 17.0465 22.9503 17.0602C22.9616 17.0741 23.0719 17.1352 23.1954 17.196C24.1049 17.6442 25.02 17.7564 25.7982 17.5152L25.971 17.4618L25.7608 17.0184C25.6451 16.7744 25.2131 15.8736 24.8008 15.0165L24.0512 13.4582L24.4501 13.4856C24.6697 13.5005 25.1433 13.5129 25.5027 13.5129L26.1562 13.5132L26.2434 13.6928C26.2915 13.7914 26.5625 14.3584 26.8457 14.9529C27.1287 15.5473 27.3928 16.0733 27.4321 16.1217C27.4715 16.1701 27.535 16.2681 27.5734 16.3396C27.6651 16.5106 27.6876 16.505 27.8532 16.2686C28.9647 14.683 29.1247 13.1083 28.3303 11.5769C28.2419 11.4064 28.1389 11.2328 28.1019 11.1918C28.0649 11.1507 27.952 11.0093 27.8508 10.8778C27.6709 10.6435 27.178 10.2079 26.8785 10.0187C26.7443 9.93352 26.6374 9.8798 26.3603 9.75717C25.8612 9.53648 24.6452 9.41765 24.0735 9.53344ZM63.6651 30.1515V34.0788H68.5043H73.3435V32.6675C73.3435 31.8914 73.3322 31.2263 73.3187 31.1896C73.2964 31.1295 73.0272 31.1227 70.695 31.1227L68.0958 31.123L68.1076 30.1305L68.1191 29.138H70.711H73.3026V27.6811V26.2242H68.4839H63.6651V30.1515ZM37.874 29.1274C37.7686 29.3539 37.5853 29.7481 37.4665 30.0038C37.1602 30.6626 36.7564 31.5372 36.531 32.0308C36.4249 32.2629 36.2595 32.6239 36.1632 32.833C36.0669 33.042 35.9138 33.3747 35.8229 33.5721C35.732 33.7694 35.4264 34.4226 35.1437 35.0237C34.8612 35.6247 34.6299 36.1236 34.6299 36.1322C34.6299 36.141 36.1843 36.1481 38.0839 36.1481C39.9838 36.1481 41.5319 36.1332 41.5246 36.1152C41.5111 36.0828 41.3065 35.648 40.8341 34.6489C40.7025 34.3702 40.4837 33.8999 40.3482 33.6037C39.9241 32.6761 39.6139 32.0009 39.4509 31.6507C39.3647 31.4648 39.2204 31.1513 39.1302 30.954C39.04 30.7563 38.8472 30.3383 38.7019 30.0248C38.5563 29.7112 38.3616 29.2885 38.2689 29.0853C38.0643 28.6368 38.104 28.6325 37.874 29.1274Z" fill="#EA1B73"/>
</g>
<defs>
<clipPath id="clip0_13_13">
<rect width="80" height="40" fill="white"/>
</clipPath>
</defs>
</svg>
