<svg width="40" height="41" viewBox="0 0 40 41" fill="none" xmlns="http://www.w3.org/2000/svg">
<g clip-path="url(#clip0_22_784)">
<path fill-rule="evenodd" clip-rule="evenodd" d="M20 0.271484C8.95 0.271484 0 9.22148 0 20.2715C0 29.1215 5.725 36.5965 13.675 39.2465C14.675 39.4215 15.05 38.8215 15.05 38.2965C15.05 37.8215 15.025 36.2465 15.025 34.5715C10 35.4965 8.7 33.3465 8.3 32.2215C8.075 31.6465 7.1 29.8715 6.25 29.3965C5.55 29.0215 4.55 28.0965 6.225 28.0715C7.8 28.0465 8.925 29.5215 9.3 30.1215C11.1 33.1465 13.975 32.2965 15.125 31.7715C15.3 30.4715 15.825 29.5965 16.4 29.0965C11.95 28.5965 7.3 26.8715 7.3 19.2215C7.3 17.0465 8.075 15.2465 9.35 13.8465C9.15 13.3465 8.45 11.2965 9.55 8.54648C9.55 8.54648 11.225 8.02148 15.05 10.5965C16.65 10.1465 18.35 9.92148 20.05 9.92148C21.75 9.92148 23.45 10.1465 25.05 10.5965C28.875 7.99648 30.55 8.54648 30.55 8.54648C31.65 11.2965 30.95 13.3465 30.75 13.8465C32.025 15.2465 32.8 17.0215 32.8 19.2215C32.8 26.8965 28.125 28.5965 23.675 29.0965C24.4 29.7215 25.025 30.9215 25.025 32.7965C25.025 35.4715 25 37.6215 25 38.2965C25 38.8215 25.375 39.4465 26.375 39.2465C34.275 36.5965 40 29.0965 40 20.2715C40 9.22148 31.05 0.271484 20 0.271484Z" fill="#100E10"/>
</g>
<defs>
<clipPath id="clip0_22_784">
<rect width="40" height="40" fill="white" transform="translate(0 0.271484)"/>
</clipPath>
</defs>
</svg>
