<svg width="25" height="26" viewBox="0 0 25 26" fill="none" xmlns="http://www.w3.org/2000/svg">
<path d="M12.5049 7.15625C9.39941 7.15625 6.89453 9.66113 6.89453 12.7666C6.89453 15.8721 9.39941 18.377 12.5049 18.377C15.6104 18.377 18.1152 15.8721 18.1152 12.7666C18.1152 9.66113 15.6104 7.15625 12.5049 7.15625ZM12.5049 16.4141C10.498 16.4141 8.85742 14.7783 8.85742 12.7666C8.85742 10.7549 10.4932 9.11914 12.5049 9.11914C14.5166 9.11914 16.1523 10.7549 16.1523 12.7666C16.1523 14.7783 14.5117 16.4141 12.5049 16.4141ZM19.6533 6.92676C19.6533 7.6543 19.0674 8.23535 18.3447 8.23535C17.6172 8.23535 17.0361 7.64941 17.0361 6.92676C17.0361 6.2041 17.6221 5.61816 18.3447 5.61816C19.0674 5.61816 19.6533 6.2041 19.6533 6.92676ZM23.3691 8.25488C23.2861 6.50195 22.8857 4.94922 21.6016 3.66992C20.3223 2.39062 18.7695 1.99023 17.0166 1.90234C15.21 1.7998 9.79492 1.7998 7.98828 1.90234C6.24023 1.98535 4.6875 2.38574 3.40332 3.66504C2.11914 4.94434 1.72363 6.49707 1.63574 8.25C1.5332 10.0566 1.5332 15.4717 1.63574 17.2783C1.71875 19.0312 2.11914 20.584 3.40332 21.8633C4.6875 23.1426 6.23535 23.543 7.98828 23.6309C9.79492 23.7334 15.21 23.7334 17.0166 23.6309C18.7695 23.5479 20.3223 23.1475 21.6016 21.8633C22.8809 20.584 23.2812 19.0312 23.3691 17.2783C23.4717 15.4717 23.4717 10.0615 23.3691 8.25488ZM21.0352 19.2168C20.6543 20.1738 19.917 20.9111 18.9551 21.2969C17.5146 21.8682 14.0967 21.7363 12.5049 21.7363C10.9131 21.7363 7.49023 21.8633 6.05469 21.2969C5.09766 20.916 4.36035 20.1787 3.97461 19.2168C3.40332 17.7764 3.53516 14.3584 3.53516 12.7666C3.53516 11.1748 3.4082 7.75195 3.97461 6.31641C4.35547 5.35938 5.09277 4.62207 6.05469 4.23633C7.49512 3.66504 10.9131 3.79687 12.5049 3.79687C14.0967 3.79687 17.5195 3.66992 18.9551 4.23633C19.9121 4.61719 20.6494 5.35449 21.0352 6.31641C21.6064 7.75684 21.4746 11.1748 21.4746 12.7666C21.4746 14.3584 21.6064 17.7812 21.0352 19.2168Z" fill="#EA1B73"/>
</svg>
