<svg width="25" height="26" viewBox="0 0 25 26" fill="none" xmlns="http://www.w3.org/2000/svg">
<g clip-path="url(#clip0_20_765)">
<path d="M6.45898 22.1465H1.92383V7.54199H6.45898V22.1465ZM4.18896 5.5498C2.73877 5.5498 1.5625 4.34863 1.5625 2.89844C1.5625 2.20186 1.83922 1.5338 2.33177 1.04125C2.82433 0.548689 3.49238 0.271973 4.18896 0.271973C4.88555 0.271973 5.5536 0.548689 6.04616 1.04125C6.53871 1.5338 6.81543 2.20186 6.81543 2.89844C6.81543 4.34863 5.63867 5.5498 4.18896 5.5498ZM23.4326 22.1465H18.9072V15.0371C18.9072 13.3428 18.873 11.1699 16.5493 11.1699C14.1914 11.1699 13.8301 13.0107 13.8301 14.915V22.1465H9.29981V7.54199H13.6494V9.53418H13.7129C14.3184 8.38672 15.7974 7.17578 18.0039 7.17578C22.5938 7.17578 23.4375 10.1982 23.4375 14.124V22.1465H23.4326Z" fill="#005CE5"/>
</g>
<defs>
<clipPath id="clip0_20_765">
<rect width="25" height="25" fill="white" transform="translate(0 0.271484)"/>
</clipPath>
</defs>
</svg>
