<svg width="34" height="26" viewBox="0 0 34 26" fill="none" xmlns="http://www.w3.org/2000/svg">
<path d="M16.2087 1.14507C13.5271 1.35721 11.1637 2.39715 9.26698 4.19415C7.36606 5.99116 6.19072 8.37884 5.93613 10.9412C5.864 11.6526 5.91067 13.0918 6.02099 13.7283C6.33498 15.5294 7.11572 17.3556 7.94737 18.2249C9.33063 19.6767 11.5795 19.7391 13.1791 18.3664C13.6713 17.9421 14.1169 17.2474 14.2569 16.6817C14.4606 15.8539 14.3587 14.972 13.9344 13.8905C12.8651 11.1659 12.4323 9.35638 12.4323 7.63009C12.4323 4.91379 13.5653 2.784 15.5086 1.83974C16.3063 1.45289 16.947 1.3073 18.0121 1.27402L18.7758 1.24906L18.2879 1.19914C17.6047 1.12427 16.7349 1.10347 16.2087 1.14507Z" fill="#0668B2"/>
<path d="M20.507 2.10594C19.5735 2.25985 18.7673 3.00028 18.5849 3.87799C18.5085 4.22741 18.5509 4.89296 18.6655 5.18414C18.8691 5.70827 19.1322 5.98281 20.4094 7.02275C22.4461 8.68248 23.405 9.8888 23.9864 11.5319C24.3003 12.4054 24.4404 13.3039 24.4404 14.4312C24.4404 16.0494 24.0967 17.3181 23.3202 18.5702C22.3358 20.1509 20.8931 21.2782 19.0474 21.898C15.9966 22.9213 12.8991 22.4678 10.2259 20.6043C10.035 20.4712 10.018 20.467 10.1411 20.571C10.5569 20.9371 11.7025 21.6109 12.479 21.9479C15.5256 23.2707 18.9964 23.1833 22.0048 21.7108L22.5564 21.4404L23.6172 21.7149C25.9933 22.3347 26.6128 22.4886 26.6256 22.4762C26.6383 22.4637 26.5492 21.7108 26.2055 19.0153L26.1079 18.2291L26.3583 17.8505C27.2536 16.4945 27.8306 14.8888 28.03 13.1792C28.1149 12.4637 28.0937 11.1284 27.9834 10.4212C27.89 9.81809 27.6354 8.81143 27.4318 8.27483C27.1135 7.41792 26.4516 6.21992 25.9127 5.51276C25.1023 4.45203 23.9991 3.45369 22.8831 2.77566C22.1873 2.34721 21.7672 2.17666 21.2368 2.10178C20.8974 2.05602 20.8125 2.05602 20.507 2.10594Z" fill="#0668B2"/>
</svg>
