<svg id="svg" version="1.1" xmlns="http://www.w3.org/2000/svg" xmlns:xlink="http://www.w3.org/1999/xlink" width="400" height="266" viewBox="0, 0, 400,266"><g id="svgg"><path id="path0" d="M208.117 82.220 C 208.117 98.786,208.018 110.476,207.876 110.563 C 207.743 110.645,207.552 111.316,207.450 112.053 C 207.273 113.345,206.343 115.450,205.565 116.322 C 205.358 116.553,205.190 116.856,205.190 116.995 C 205.190 117.309,202.260 120.231,201.524 120.651 C 199.487 121.814,198.140 122.422,197.599 122.422 C 197.253 122.422,196.897 122.542,196.806 122.688 C 196.577 123.058,189.307 123.041,189.077 122.670 C 188.981 122.513,188.749 122.444,188.562 122.516 C 188.375 122.588,188.117 122.542,187.990 122.415 C 187.862 122.288,187.039 121.822,186.161 121.379 C 184.452 120.518,181.743 118.373,181.260 117.498 C 181.098 117.206,180.729 116.607,180.439 116.168 C 180.150 115.729,179.840 115.190,179.751 114.970 C 179.473 114.283,178.775 112.731,178.503 112.191 C 178.348 111.884,178.186 105.936,178.104 97.487 L 177.966 83.300 173.608 83.300 L 169.250 83.300 169.354 94.810 C 169.459 106.459,169.809 113.940,170.275 114.519 C 170.416 114.694,170.609 115.204,170.705 115.652 C 170.927 116.695,172.490 119.806,173.372 120.963 C 173.746 121.453,174.052 121.949,174.052 122.066 C 174.052 122.396,178.661 126.946,178.995 126.946 C 179.158 126.946,179.495 127.171,179.743 127.445 C 180.252 128.006,184.948 130.406,185.539 130.406 C 185.749 130.406,186.041 130.525,186.186 130.670 C 186.331 130.816,187.224 131.012,188.169 131.106 C 189.114 131.200,190.012 131.375,190.166 131.495 C 190.886 132.056,199.102 131.380,200.000 130.685 C 200.146 130.572,200.625 130.398,201.065 130.298 C 202.281 130.021,205.047 128.549,206.457 127.428 C 207.150 126.876,208.158 126.127,208.697 125.763 C 209.235 125.398,209.894 124.790,210.161 124.411 C 210.427 124.031,211.163 123.099,211.796 122.340 C 212.429 121.580,213.111 120.599,213.311 120.160 C 213.512 119.721,213.903 118.942,214.181 118.430 C 215.311 116.349,216.291 113.639,215.914 113.639 C 215.835 113.639,215.934 113.441,216.135 113.199 C 216.439 112.834,216.514 107.802,216.583 83.392 L 216.665 54.025 212.391 54.025 L 208.117 54.025 208.117 82.220 M71.590 83.578 C 71.590 83.731,71.440 83.826,71.257 83.790 C 70.677 83.676,68.158 84.104,68.011 84.342 C 67.934 84.468,67.462 84.647,66.964 84.740 C 65.711 84.976,62.059 87.950,61.022 89.580 C 58.935 92.860,57.711 99.184,59.001 100.026 C 59.147 100.121,59.345 100.699,59.440 101.308 C 59.616 102.438,60.384 104.054,60.745 104.057 C 60.855 104.058,60.945 104.228,60.945 104.436 C 60.945 104.910,64.375 108.317,64.851 108.317 C 65.045 108.317,65.203 108.415,65.203 108.536 C 65.203 108.814,67.386 109.914,67.938 109.914 C 68.166 109.914,68.402 110.063,68.463 110.246 C 68.549 110.505,71.555 110.598,81.988 110.665 C 89.366 110.713,95.524 110.846,95.672 110.961 C 95.820 111.077,96.259 111.247,96.647 111.339 C 98.305 111.734,100.123 114.609,100.529 117.478 C 100.670 118.475,99.485 120.856,98.215 122.129 C 96.845 123.502,96.132 123.534,64.338 123.653 L 36.460 123.757 36.460 127.743 L 36.460 131.728 66.384 131.734 C 86.207 131.739,96.363 131.650,96.472 131.472 C 96.564 131.325,97.050 131.204,97.554 131.204 C 98.058 131.204,98.470 131.096,98.470 130.963 C 98.470 130.830,98.709 130.784,99.002 130.861 C 99.295 130.938,99.534 130.876,99.534 130.724 C 99.534 130.572,99.894 130.369,100.333 130.273 C 100.772 130.176,101.131 130.001,101.131 129.883 C 101.131 129.766,101.341 129.594,101.597 129.501 C 103.165 128.934,106.720 125.322,106.720 124.296 C 106.720 124.143,106.830 124.019,106.965 124.019 C 107.100 124.019,107.289 123.659,107.385 123.220 C 107.482 122.781,107.662 122.422,107.786 122.422 C 107.911 122.422,108.087 121.733,108.178 120.892 C 108.268 120.050,108.457 119.153,108.596 118.899 C 108.912 118.323,108.929 116.381,108.620 116.191 C 108.494 116.113,108.325 115.297,108.244 114.378 C 107.948 111.004,104.155 105.842,100.963 104.469 C 100.397 104.225,99.574 103.831,99.135 103.593 C 98.277 103.128,93.826 102.903,77.866 102.515 C 72.081 102.375,70.143 102.246,70.060 101.996 C 69.999 101.813,69.796 101.663,69.608 101.663 C 67.630 101.663,66.089 97.132,67.300 94.873 C 69.455 90.852,69.983 90.752,89.055 90.752 L 104.059 90.752 104.059 87.026 L 104.059 83.300 87.824 83.300 C 76.724 83.300,71.590 83.388,71.590 83.578 M135.995 83.578 C 135.995 83.731,135.845 83.828,135.662 83.795 C 134.971 83.669,132.003 84.162,132.003 84.402 C 132.003 84.541,131.853 84.624,131.670 84.587 C 130.822 84.417,124.817 87.066,124.817 87.610 C 124.817 87.728,124.665 87.824,124.479 87.824 C 124.137 87.824,118.962 92.871,118.962 93.205 C 118.962 93.304,118.690 93.679,118.357 94.039 C 117.646 94.806,115.768 98.461,115.768 99.077 C 115.768 99.311,115.659 99.570,115.525 99.653 C 115.392 99.736,115.199 100.312,115.096 100.933 C 114.994 101.554,114.783 102.220,114.628 102.412 C 114.238 102.894,114.229 112.546,114.618 112.792 C 114.776 112.892,114.992 113.493,115.098 114.127 C 115.204 114.761,115.457 115.599,115.661 115.990 C 115.865 116.380,116.032 116.868,116.033 117.074 C 116.034 117.280,116.306 117.819,116.639 118.272 C 116.971 118.725,117.533 119.694,117.887 120.426 C 118.561 121.818,123.544 127.060,124.865 127.767 C 128.227 129.566,130.025 130.406,130.517 130.406 C 130.836 130.406,131.224 130.533,131.379 130.687 C 131.534 130.842,132.340 131.039,133.170 131.125 C 134.000 131.210,134.743 131.383,134.821 131.508 C 135.008 131.811,141.514 131.804,141.628 131.501 C 141.852 130.904,146.134 130.849,146.289 131.441 C 146.370 131.750,146.532 132.003,146.650 132.003 C 146.768 132.003,146.943 132.362,147.039 132.801 C 147.136 133.240,147.315 133.599,147.438 133.599 C 147.562 133.599,147.741 133.959,147.838 134.398 C 147.934 134.837,148.123 135.196,148.258 135.196 C 148.393 135.196,148.503 135.412,148.503 135.675 C 148.503 135.939,149.938 139.023,151.692 142.528 C 153.446 146.034,154.883 148.990,154.886 149.097 C 154.888 149.205,148.513 149.339,140.719 149.396 C 126.017 149.503,118.658 149.814,118.484 150.336 C 118.430 150.499,118.186 150.633,117.942 150.634 C 117.698 150.635,117.177 150.803,116.784 151.008 C 116.392 151.213,115.703 151.461,115.254 151.560 C 114.805 151.658,114.438 151.835,114.438 151.953 C 114.438 152.071,114.228 152.244,113.972 152.338 C 113.067 152.669,112.043 153.326,112.043 153.574 C 112.043 153.712,111.907 153.826,111.742 153.826 C 111.577 153.826,110.978 154.215,110.412 154.691 C 109.845 155.166,108.902 155.959,108.317 156.451 C 107.731 156.944,107.252 157.491,107.252 157.666 C 107.252 157.841,106.893 158.328,106.454 158.749 C 106.015 159.170,105.655 159.671,105.655 159.863 C 105.655 160.056,105.548 160.213,105.417 160.213 C 105.189 160.213,102.987 164.476,102.892 165.102 C 102.867 165.267,102.770 165.523,102.678 165.671 C 102.586 165.818,102.424 166.417,102.318 167.001 C 102.213 167.586,101.992 168.232,101.828 168.437 C 101.400 168.974,101.421 177.565,101.852 178.083 C 102.029 178.296,102.104 178.734,102.020 179.056 C 101.930 179.400,101.989 179.641,102.165 179.641 C 102.328 179.641,102.462 179.873,102.462 180.157 C 102.462 180.441,102.582 180.748,102.728 180.838 C 102.874 180.929,102.994 181.194,102.994 181.429 C 102.994 181.990,104.888 185.762,105.170 185.762 C 105.291 185.762,105.389 185.927,105.389 186.128 C 105.389 186.330,105.572 186.647,105.795 186.832 C 106.018 187.017,106.147 187.222,106.081 187.288 C 105.936 187.433,110.665 192.149,110.955 192.149 C 111.069 192.149,111.378 192.389,111.643 192.681 C 111.908 192.974,112.286 193.214,112.483 193.214 C 112.680 193.214,112.841 193.312,112.841 193.433 C 112.841 193.717,115.030 194.810,115.598 194.810 C 115.838 194.810,116.035 194.925,116.035 195.064 C 116.035 195.204,116.455 195.397,116.969 195.494 C 117.483 195.590,117.967 195.772,118.044 195.897 C 118.122 196.023,118.779 196.204,119.505 196.301 C 120.231 196.397,120.825 196.580,120.825 196.708 C 120.825 196.837,128.506 196.941,138.190 196.944 L 155.556 196.948 156.207 198.274 C 156.565 199.004,156.954 199.601,157.072 199.601 C 157.189 199.601,157.285 199.737,157.285 199.904 C 157.285 200.308,158.429 202.637,158.683 202.750 C 158.792 202.799,158.884 202.978,158.887 203.149 C 158.892 203.514,162.728 211.213,163.170 211.746 C 163.590 212.251,172.456 212.281,172.453 211.776 C 172.451 211.404,168.089 202.640,167.631 202.089 C 167.175 201.540,165.284 197.647,165.276 197.243 C 165.271 196.961,165.729 196.898,167.332 196.960 C 168.466 197.003,171.339 197.016,173.716 196.989 L 178.037 196.939 178.411 196.075 C 178.617 195.599,179.828 193.054,181.103 190.419 C 182.378 187.784,183.873 184.671,184.426 183.500 C 189.997 171.702,191.854 167.931,192.092 167.931 C 192.224 167.931,192.971 169.278,193.753 170.925 C 194.535 172.572,196.170 175.989,197.387 178.520 C 198.605 181.050,199.601 183.163,199.601 183.214 C 199.601 183.266,200.933 186.046,202.561 189.392 C 204.189 192.738,205.605 195.775,205.707 196.141 L 205.893 196.806 210.332 196.879 C 212.773 196.919,214.774 196.860,214.778 196.746 C 214.782 196.633,214.254 195.462,213.606 194.145 C 209.420 185.640,207.584 181.820,207.581 181.611 C 207.579 181.479,206.681 179.578,205.585 177.387 C 204.489 175.197,203.593 173.191,203.593 172.930 C 203.593 172.669,203.483 172.455,203.348 172.455 C 203.213 172.455,203.024 172.096,202.927 171.657 C 202.831 171.218,202.651 170.858,202.528 170.858 C 202.405 170.858,202.226 170.499,202.129 170.060 C 202.033 169.621,201.853 169.261,201.730 169.261 C 201.607 169.261,201.427 168.902,201.331 168.463 C 201.234 168.024,201.058 167.665,200.939 167.665 C 200.820 167.665,200.643 167.335,200.544 166.933 C 200.342 166.102,192.158 149.604,191.856 149.418 C 191.748 149.351,191.581 149.657,191.484 150.097 C 191.387 150.538,191.208 150.898,191.084 150.898 C 190.961 150.898,190.782 151.257,190.685 151.697 C 190.589 152.136,190.400 152.495,190.265 152.495 C 190.130 152.495,190.020 152.627,190.020 152.787 C 190.020 153.128,189.529 154.281,188.266 156.911 C 187.767 157.949,187.359 158.996,187.359 159.239 C 187.359 159.482,187.248 159.681,187.114 159.681 C 186.979 159.681,186.790 160.040,186.693 160.479 C 186.597 160.918,186.417 161.277,186.294 161.277 C 186.171 161.277,185.991 161.637,185.895 162.076 C 185.798 162.515,185.609 162.874,185.475 162.874 C 185.340 162.874,185.230 163.006,185.230 163.167 C 185.230 163.594,184.685 164.778,181.630 170.991 C 180.119 174.065,178.801 176.910,178.701 177.312 C 178.600 177.715,178.421 178.044,178.302 178.044 C 178.183 178.044,178.007 178.403,177.911 178.842 C 177.814 179.281,177.635 179.641,177.512 179.641 C 177.389 179.641,177.209 180.000,177.112 180.439 C 177.016 180.878,176.836 181.238,176.713 181.238 C 176.590 181.238,176.410 181.597,176.314 182.036 C 176.218 182.475,176.028 182.834,175.894 182.834 C 175.759 182.834,175.649 182.969,175.649 183.134 C 175.649 183.422,175.059 184.740,173.093 188.847 C 172.596 189.885,172.189 190.884,172.189 191.068 C 172.189 191.251,171.941 191.749,171.639 192.174 C 171.336 192.600,171.147 192.947,171.218 192.947 C 171.290 192.947,171.058 193.493,170.704 194.159 C 170.350 194.826,170.060 195.544,170.060 195.756 C 170.060 195.968,169.940 196.141,169.794 196.141 C 169.629 196.141,169.528 194.722,169.528 192.415 L 169.528 188.689 165.602 188.658 C 163.443 188.640,161.537 188.643,161.367 188.664 C 161.010 188.708,160.100 187.429,158.924 185.230 C 158.650 184.717,158.230 183.939,157.990 183.500 C 157.751 183.061,157.554 182.552,157.553 182.369 C 157.552 182.186,157.441 182.036,157.307 182.036 C 157.172 182.036,156.983 181.677,156.886 181.238 C 156.790 180.798,156.610 180.439,156.487 180.439 C 156.364 180.439,156.184 180.080,156.088 179.641 C 155.991 179.202,155.812 178.842,155.689 178.842 C 155.566 178.842,155.386 178.483,155.289 178.044 C 155.193 177.605,155.013 177.246,154.890 177.246 C 154.767 177.246,154.587 176.886,154.491 176.447 C 154.395 176.008,154.218 175.649,154.100 175.649 C 153.981 175.649,153.801 175.321,153.700 174.919 C 153.600 174.518,153.437 174.129,153.339 174.055 C 153.241 173.980,152.801 173.200,152.362 172.322 C 151.923 171.444,151.474 170.685,151.364 170.637 C 151.254 170.588,151.164 170.378,151.164 170.171 C 151.164 169.929,150.877 169.794,150.366 169.794 C 149.927 169.794,149.568 169.674,149.568 169.528 C 149.568 169.354,144.866 169.261,135.995 169.261 L 122.422 169.261 122.422 173.238 C 122.422 175.425,122.520 177.275,122.641 177.349 C 123.014 177.580,124.631 177.586,135.063 177.394 L 145.176 177.209 145.775 178.177 C 146.104 178.710,146.374 179.257,146.374 179.393 C 146.374 179.529,146.484 179.641,146.619 179.641 C 146.754 179.641,146.943 180.000,147.039 180.439 C 147.136 180.878,147.312 181.238,147.431 181.238 C 147.550 181.238,147.729 181.566,147.830 181.967 C 147.931 182.368,148.114 182.759,148.238 182.835 C 148.592 183.054,151.150 188.231,151.014 188.451 C 150.837 188.738,122.760 188.756,122.584 188.469 C 122.503 188.339,121.915 188.160,121.278 188.073 C 120.046 187.904,117.374 186.667,117.019 186.101 C 116.902 185.914,116.659 185.762,116.479 185.762 C 116.056 185.762,112.841 182.522,112.841 182.095 C 112.841 181.916,112.739 181.770,112.613 181.770 C 112.293 181.770,110.446 178.010,110.446 177.358 C 110.446 177.062,110.308 176.682,110.139 176.513 C 109.737 176.111,109.701 170.241,110.098 169.750 C 110.255 169.554,110.466 169.010,110.567 168.541 C 110.742 167.720,111.423 166.230,112.113 165.157 C 112.942 163.867,115.216 161.277,115.520 161.277 C 115.641 161.277,116.067 160.975,116.466 160.606 C 116.865 160.236,117.470 159.864,117.810 159.778 C 118.151 159.693,118.430 159.529,118.430 159.415 C 118.430 159.300,118.758 159.124,119.159 159.023 C 119.560 158.922,119.972 158.705,120.074 158.539 C 120.395 158.021,127.189 157.772,144.511 157.644 L 161.144 157.522 161.585 156.539 C 161.827 155.998,162.112 155.262,162.219 154.903 C 162.325 154.544,162.877 153.366,163.446 152.286 C 164.805 149.706,164.803 149.684,162.913 145.975 C 162.018 144.218,161.284 142.631,161.282 142.448 C 161.279 142.265,161.167 142.116,161.032 142.116 C 160.898 142.116,160.709 141.756,160.612 141.317 C 160.516 140.878,160.336 140.519,160.213 140.519 C 160.090 140.519,159.910 140.160,159.814 139.721 C 159.717 139.281,159.541 138.922,159.422 138.922 C 159.303 138.922,159.124 138.594,159.023 138.193 C 158.922 137.792,158.751 137.403,158.643 137.328 C 158.380 137.146,156.423 133.142,156.484 132.910 C 156.511 132.810,156.426 132.654,156.296 132.565 C 155.963 132.335,155.156 130.543,155.156 130.033 C 155.156 129.799,155.046 129.607,154.911 129.607 C 154.777 129.607,154.587 129.248,154.491 128.809 C 154.395 128.370,154.215 128.011,154.092 128.011 C 152.909 128.011,153.587 126.265,155.527 124.313 C 156.641 123.193,157.552 122.177,157.552 122.055 C 157.552 121.933,157.911 121.379,158.350 120.825 C 158.789 120.271,159.148 119.684,159.148 119.523 C 159.148 119.361,159.259 119.228,159.393 119.228 C 159.528 119.228,159.717 118.869,159.814 118.430 C 159.910 117.991,160.099 117.631,160.234 117.631 C 160.369 117.631,160.480 117.362,160.481 117.033 C 160.482 116.703,160.649 116.114,160.853 115.724 C 161.057 115.333,161.309 114.495,161.414 113.861 C 161.518 113.227,161.739 112.541,161.904 112.338 C 162.315 111.829,162.322 102.687,161.911 102.171 C 161.747 101.965,161.533 101.352,161.435 100.810 C 161.338 100.267,161.083 99.488,160.870 99.080 C 160.657 98.671,160.482 98.212,160.481 98.060 C 160.478 97.589,159.456 95.749,158.617 94.705 C 158.178 94.158,157.818 93.577,157.818 93.414 C 157.818 93.031,152.811 88.090,152.424 88.090 C 152.262 88.090,151.883 87.859,151.581 87.577 C 150.853 86.897,147.065 84.973,146.010 84.747 C 145.551 84.649,145.044 84.463,144.883 84.334 C 144.721 84.204,143.669 84.021,142.545 83.926 C 141.421 83.830,140.438 83.651,140.361 83.526 C 140.155 83.193,135.995 83.242,135.995 83.578 M226.480 107.525 L 226.480 131.750 230.805 131.677 L 235.130 131.603 235.198 111.925 C 235.243 98.984,235.175 92.154,234.998 91.978 C 234.841 91.821,234.731 89.972,234.731 87.505 L 234.731 83.300 230.605 83.300 L 226.480 83.300 226.480 107.525 M246.174 107.522 L 246.174 131.751 264.604 131.636 C 281.798 131.528,285.619 131.421,286.627 131.016 C 286.846 130.928,287.236 130.882,287.492 130.914 C 287.748 130.946,287.957 130.844,287.957 130.689 C 287.957 130.533,288.230 130.406,288.564 130.406 C 288.897 130.406,289.406 130.242,289.695 130.041 C 289.983 129.840,290.609 129.591,291.084 129.487 C 291.560 129.384,291.949 129.203,291.949 129.085 C 291.949 128.967,292.159 128.794,292.415 128.700 C 293.733 128.217,295.657 126.764,297.850 124.595 C 298.979 123.479,300.732 121.372,300.732 121.132 C 300.732 120.963,300.832 120.825,300.955 120.825 C 301.200 120.825,301.917 119.482,301.843 119.162 C 301.817 119.052,301.902 118.962,302.032 118.962 C 302.235 118.962,302.547 118.214,302.549 117.722 C 302.549 117.632,302.649 117.485,302.772 117.395 C 303.148 117.119,303.582 116.195,303.789 115.227 C 303.898 114.720,304.123 114.137,304.289 113.931 C 305.361 112.605,304.697 101.449,303.384 98.736 C 302.031 95.940,301.325 94.626,300.699 93.739 C 300.110 92.901,295.527 88.201,295.095 87.990 C 294.902 87.896,294.385 87.586,293.945 87.303 C 292.041 86.072,288.823 84.586,287.824 84.476 C 287.678 84.459,287.379 84.367,287.159 84.270 C 285.802 83.669,280.433 83.464,263.939 83.381 L 246.174 83.293 246.174 107.522 M142.679 92.224 C 153.653 95.067,157.881 109.304,150.385 118.175 C 149.393 119.349,149.536 119.527,146.226 112.974 C 144.821 110.193,143.570 107.812,143.445 107.684 C 143.192 107.422,134.930 107.099,134.930 107.350 C 134.930 107.438,136.607 110.871,138.656 114.979 C 142.657 123.001,142.685 123.076,141.783 123.321 C 134.147 125.395,124.135 119.079,122.688 111.274 C 120.380 98.831,130.599 89.093,142.679 92.224 M283.557 91.801 C 283.642 91.939,284.248 92.132,284.903 92.230 C 285.558 92.329,286.094 92.500,286.094 92.612 C 286.094 92.723,286.474 92.890,286.937 92.983 C 287.401 93.076,288.171 93.450,288.649 93.815 C 289.127 94.179,289.620 94.478,289.743 94.478 C 290.058 94.478,293.783 98.263,294.225 99.032 C 294.426 99.382,294.662 99.847,294.750 100.067 C 294.839 100.286,295.079 100.825,295.284 101.264 C 296.011 102.817,296.466 104.471,296.470 105.573 C 296.472 106.187,296.596 106.764,296.746 106.857 C 297.011 107.021,296.978 107.772,296.670 108.583 C 296.586 108.802,296.447 109.675,296.359 110.521 C 296.272 111.368,296.095 112.266,295.967 112.517 C 295.838 112.769,295.376 113.695,294.939 114.577 C 294.503 115.458,293.898 116.476,293.595 116.839 C 293.292 117.202,292.656 117.958,292.182 118.520 C 291.356 119.500,288.452 121.623,287.939 121.623 C 287.803 121.623,287.691 121.734,287.691 121.868 C 287.691 122.003,287.302 122.197,286.826 122.298 C 286.351 122.400,285.813 122.603,285.631 122.749 C 285.147 123.139,283.375 123.198,268.197 123.324 L 254.424 123.438 254.424 107.494 L 254.424 91.550 268.913 91.550 C 277.693 91.550,283.463 91.649,283.557 91.801 M225.536 149.549 C 225.397 149.684,224.864 149.834,224.351 149.881 L 223.420 149.967 223.420 173.174 C 223.420 190.900,223.495 196.456,223.740 196.701 C 223.948 196.909,225.460 197.066,228.065 197.149 L 232.069 197.278 232.069 183.403 C 232.069 170.223,232.172 168.317,232.790 169.993 C 232.885 170.250,233.030 170.519,233.114 170.592 C 233.257 170.717,237.371 178.960,238.760 181.903 C 239.105 182.635,239.449 183.293,239.525 183.367 C 239.764 183.598,241.650 187.614,241.650 187.892 C 241.650 188.038,241.760 188.157,241.895 188.157 C 242.030 188.157,242.219 188.516,242.315 188.955 C 242.412 189.395,242.591 189.754,242.715 189.754 C 242.838 189.754,243.017 190.113,243.114 190.552 C 243.210 190.991,243.390 191.351,243.513 191.351 C 243.636 191.351,243.816 191.710,243.912 192.149 C 244.009 192.588,244.188 192.947,244.311 192.947 C 244.434 192.947,244.614 193.307,244.711 193.746 C 244.807 194.185,244.987 194.544,245.110 194.544 C 245.233 194.544,245.413 194.904,245.509 195.343 C 245.605 195.782,245.781 196.141,245.898 196.141 C 246.016 196.141,246.175 196.381,246.251 196.673 C 246.384 197.179,246.614 197.206,250.790 197.206 L 255.189 197.206 258.099 191.284 C 261.844 183.666,262.675 181.900,262.675 181.560 C 262.675 181.407,262.764 181.242,262.874 181.193 C 263.124 181.082,265.868 175.573,265.868 175.182 C 265.868 175.024,265.958 174.855,266.068 174.806 C 266.178 174.757,266.866 173.492,267.598 171.996 C 268.330 170.499,269.019 169.271,269.128 169.268 C 269.238 169.264,269.328 175.549,269.328 183.234 L 269.328 197.206 273.425 197.206 C 276.915 197.206,277.545 197.143,277.683 196.785 C 277.894 196.234,277.894 150.273,277.683 149.722 C 277.447 149.108,270.126 149.087,270.126 149.701 C 270.126 149.920,270.016 150.100,269.881 150.100 C 269.747 150.100,269.558 150.459,269.461 150.898 C 269.365 151.337,269.185 151.697,269.062 151.697 C 268.939 151.697,268.759 152.056,268.663 152.495 C 268.566 152.934,268.387 153.293,268.263 153.293 C 268.140 153.293,267.961 153.653,267.864 154.092 C 267.768 154.531,267.588 154.890,267.465 154.890 C 267.342 154.890,267.162 155.250,267.066 155.689 C 266.969 156.128,266.790 156.487,266.667 156.487 C 266.544 156.487,266.364 156.846,266.267 157.285 C 266.171 157.725,265.991 158.084,265.868 158.084 C 265.745 158.084,265.566 158.443,265.469 158.882 C 265.373 159.321,265.193 159.681,265.070 159.681 C 264.947 159.681,264.767 160.040,264.671 160.479 C 264.574 160.918,264.395 161.277,264.271 161.277 C 264.148 161.277,263.969 161.637,263.872 162.076 C 263.776 162.515,263.587 162.874,263.452 162.874 C 263.317 162.874,263.207 163.010,263.207 163.176 C 263.207 163.342,261.696 166.545,259.850 170.295 C 258.003 174.045,255.279 179.595,253.795 182.628 C 251.392 187.542,250.432 189.006,250.432 187.758 C 250.432 187.538,250.322 187.359,250.187 187.359 C 250.053 187.359,249.864 186.999,249.767 186.560 C 249.671 186.121,249.491 185.762,249.368 185.762 C 249.245 185.762,249.065 185.403,248.969 184.963 C 248.872 184.524,248.693 184.165,248.570 184.165 C 248.446 184.165,248.267 183.806,248.170 183.367 C 248.074 182.927,247.894 182.568,247.771 182.568 C 247.648 182.568,247.468 182.209,247.372 181.770 C 247.275 181.331,247.086 180.971,246.952 180.971 C 246.817 180.971,246.707 180.839,246.707 180.677 C 246.707 180.400,244.715 176.304,235.306 157.226 L 231.404 149.315 228.596 149.308 C 227.052 149.304,225.675 149.413,225.536 149.549 M288.490 173.253 L 288.490 197.206 312.176 197.206 L 335.862 197.206 335.862 192.949 L 335.862 188.693 316.234 188.624 L 296.607 188.556 296.538 173.193 L 296.469 157.829 297.070 157.683 C 297.401 157.602,306.264 157.570,316.767 157.610 L 335.862 157.685 335.862 153.493 L 335.862 149.301 312.176 149.301 L 288.490 149.301 288.490 173.253 M335.704 162.741 C 335.704 165.230,335.744 166.283,335.793 165.083 C 335.842 163.883,335.843 161.847,335.794 160.559 C 335.745 159.271,335.705 160.253,335.704 162.741 M335.595 169.050 C 335.595 169.153,331.015 169.238,325.416 169.239 C 319.817 169.239,315.086 169.244,314.904 169.250 C 314.653 169.259,314.571 170.209,314.571 173.080 L 314.571 176.898 327.146 177.071 C 334.062 177.166,344.701 177.322,350.788 177.418 C 356.876 177.513,362.175 177.511,362.565 177.413 L 363.273 177.235 363.273 173.120 L 363.273 169.005 349.434 168.933 C 341.823 168.894,335.595 168.947,335.595 169.050 " stroke="none" fill="#fafafa" fill-rule="evenodd"></path><path id="path1" d="M216.633 81.623 C 216.560 96.876,216.591 109.264,216.701 109.154 C 216.812 109.043,216.872 96.564,216.834 81.423 L 216.766 53.892 216.633 81.623 M207.851 82.422 C 207.778 97.967,207.808 110.595,207.919 110.484 C 208.029 110.374,208.089 97.655,208.052 82.221 L 207.984 54.158 207.851 82.422 M140.465 83.608 C 140.568 83.704,141.275 83.824,142.036 83.874 C 142.798 83.924,143.337 83.887,143.234 83.790 C 143.131 83.694,142.424 83.574,141.663 83.524 C 140.901 83.474,140.363 83.512,140.465 83.608 M246.036 107.518 C 246.036 120.912,246.068 126.391,246.108 119.694 C 246.147 112.997,246.147 102.039,246.108 95.343 C 246.068 88.646,246.036 94.125,246.036 107.518 M69.528 83.750 C 69.784 83.817,70.203 83.817,70.459 83.750 C 70.715 83.683,70.506 83.628,69.993 83.628 C 69.481 83.628,69.271 83.683,69.528 83.750 M133.932 83.750 C 134.188 83.817,134.607 83.817,134.864 83.750 C 135.120 83.683,134.910 83.628,134.398 83.628 C 133.886 83.628,133.676 83.683,133.932 83.750 M282.768 83.724 C 284.015 83.925,285.768 83.950,285.654 83.766 C 285.586 83.656,284.789 83.583,283.883 83.602 C 282.977 83.622,282.475 83.677,282.768 83.724 M67.465 84.288 C 66.650 84.484,66.399 84.849,67.183 84.699 C 67.562 84.626,67.937 84.462,68.017 84.333 C 68.097 84.204,68.125 84.112,68.080 84.129 C 68.034 84.146,67.758 84.218,67.465 84.288 M150.654 86.826 C 150.715 86.863,151.124 87.192,151.564 87.558 L 152.362 88.224 151.717 87.492 C 151.362 87.089,150.953 86.760,150.807 86.760 C 150.662 86.760,150.593 86.790,150.654 86.826 M123.206 88.556 L 122.289 89.554 123.220 88.722 C 123.733 88.264,124.331 87.825,124.551 87.745 C 124.896 87.620,124.894 87.597,124.537 87.579 C 124.309 87.568,123.710 88.007,123.206 88.556 M296.474 89.228 C 296.474 89.268,297.402 90.197,298.536 91.291 L 300.599 93.280 298.609 91.218 C 296.762 89.302,296.474 89.034,296.474 89.228 M120.320 91.389 C 119.337 92.381,118.693 93.242,118.777 93.452 C 118.890 93.736,118.925 93.729,118.941 93.420 C 118.953 93.205,119.707 92.277,120.618 91.358 C 121.528 90.439,122.213 89.687,122.140 89.687 C 122.067 89.687,121.248 90.453,120.320 91.389 M155.556 90.752 C 156.127 91.337,156.655 91.816,156.728 91.816 C 156.801 91.816,156.393 91.337,155.822 90.752 C 155.250 90.166,154.722 89.687,154.649 89.687 C 154.576 89.687,154.984 90.166,155.556 90.752 M72.969 90.978 C 72.399 91.138,94.347 91.108,100.998 90.940 C 102.608 90.899,97.099 90.852,88.756 90.835 C 80.413 90.819,73.309 90.883,72.969 90.978 M134.132 92.034 C 122.630 95.288,118.428 109.656,126.480 118.199 C 130.622 122.594,136.821 124.669,141.783 123.321 C 142.685 123.076,142.657 123.001,138.656 114.979 C 136.607 110.871,134.930 107.438,134.930 107.350 C 134.930 107.099,143.192 107.422,143.445 107.684 C 143.570 107.812,144.821 110.193,146.226 112.974 C 149.536 119.527,149.393 119.349,150.385 118.175 C 160.410 106.311,148.930 87.848,134.132 92.034 M261.695 91.750 C 265.768 91.791,272.355 91.791,276.333 91.750 C 280.311 91.708,276.979 91.674,268.929 91.674 C 260.878 91.674,257.623 91.708,261.695 91.750 M291.816 96.607 C 292.980 97.778,293.993 98.736,294.066 98.736 C 294.139 98.736,293.247 97.778,292.083 96.607 C 290.918 95.436,289.906 94.478,289.833 94.478 C 289.760 94.478,290.652 95.436,291.816 96.607 M58.314 96.525 C 58.297 97.284,58.375 97.963,58.488 98.032 C 58.600 98.102,58.654 97.660,58.607 97.050 C 58.469 95.259,58.347 95.041,58.314 96.525 M67.009 99.138 C 67.159 99.432,67.563 99.911,67.906 100.201 C 68.508 100.709,68.506 100.700,67.868 99.932 C 66.808 98.655,66.719 98.573,67.009 99.138 M59.144 100.865 C 59.144 101.377,59.198 101.587,59.265 101.331 C 59.332 101.075,59.332 100.655,59.265 100.399 C 59.198 100.143,59.144 100.353,59.144 100.865 M114.806 100.982 C 114.725 101.193,114.706 101.583,114.763 101.847 C 114.828 102.148,114.919 102.004,115.006 101.464 C 115.151 100.557,115.056 100.330,114.806 100.982 M85.230 102.645 C 85.486 102.712,85.905 102.712,86.161 102.645 C 86.417 102.578,86.208 102.523,85.695 102.523 C 85.183 102.523,84.973 102.578,85.230 102.645 M88.490 102.911 C 93.060 103.102,97.611 103.110,97.498 102.927 C 97.430 102.818,94.956 102.752,92.000 102.781 C 89.045 102.810,87.465 102.869,88.490 102.911 M102.225 105.190 C 102.290 105.226,103.298 106.154,104.465 107.252 L 106.587 109.248 104.597 107.186 C 103.503 106.051,102.495 105.123,102.358 105.123 C 102.220 105.123,102.160 105.153,102.225 105.190 M114.083 105.833 C 113.838 106.077,113.858 109.587,114.105 109.739 C 114.215 109.807,114.305 108.916,114.305 107.759 C 114.305 106.602,114.295 105.655,114.283 105.655 C 114.270 105.655,114.181 105.735,114.083 105.833 M169.626 109.647 C 169.626 111.184,169.670 111.813,169.724 111.045 C 169.778 110.276,169.778 109.019,169.724 108.250 C 169.670 107.482,169.626 108.110,169.626 109.647 M178.353 109.432 C 178.329 110.851,178.400 112.067,178.510 112.135 C 178.619 112.204,178.676 111.402,178.636 110.355 C 178.512 107.112,178.397 106.737,178.353 109.432 M75.050 110.904 C 86.269 111.089,95.747 111.093,95.634 110.912 C 95.566 110.802,89.919 110.739,83.085 110.772 C 76.250 110.804,72.635 110.864,75.050 110.904 M296.090 111.045 C 295.814 111.954,295.747 112.562,295.936 112.445 C 296.051 112.374,296.199 111.954,296.264 111.514 C 296.382 110.707,296.278 110.426,296.090 111.045 M207.021 113.049 C 206.933 113.578,206.972 113.826,207.120 113.678 C 207.254 113.544,207.319 113.151,207.265 112.805 C 207.181 112.272,207.143 112.310,207.021 113.049 M108.275 114.517 C 108.325 115.279,108.445 115.986,108.541 116.088 C 108.637 116.191,108.675 115.652,108.625 114.891 C 108.575 114.129,108.455 113.422,108.359 113.320 C 108.262 113.217,108.225 113.756,108.275 114.517 M100.394 117.898 C 100.394 118.410,100.449 118.619,100.516 118.363 C 100.583 118.107,100.583 117.688,100.516 117.432 C 100.449 117.176,100.394 117.385,100.394 117.898 M203.289 118.834 C 202.317 119.783,201.602 120.559,201.700 120.559 C 201.798 120.559,202.650 119.780,203.593 118.829 C 204.536 117.878,205.251 117.101,205.182 117.104 C 205.113 117.106,204.261 117.885,203.289 118.834 M116.301 118.019 C 116.301 118.126,116.540 118.517,116.833 118.889 C 117.126 119.262,117.365 119.479,117.365 119.373 C 117.365 119.266,117.126 118.875,116.833 118.502 C 116.540 118.130,116.301 117.913,116.301 118.019 M108.460 119.029 C 108.252 119.676,108.160 121.354,108.343 121.157 C 108.445 121.048,108.574 120.449,108.629 119.827 C 108.729 118.703,108.663 118.392,108.460 119.029 M211.727 122.364 C 210.789 123.488,210.770 123.536,211.550 122.821 C 212.289 122.144,213.099 121.071,212.850 121.100 C 212.809 121.105,212.303 121.674,211.727 122.364 M193.288 122.884 C 193.988 122.939,195.066 122.938,195.683 122.882 C 196.301 122.827,195.729 122.782,194.411 122.782 C 193.094 122.783,192.588 122.829,193.288 122.884 M121.091 124.684 C 122.034 125.635,122.866 126.414,122.939 126.414 C 123.012 126.414,122.300 125.635,121.357 124.684 C 120.414 123.733,119.583 122.954,119.510 122.954 C 119.437 122.954,120.148 123.733,121.091 124.684 M256.753 123.413 C 257.229 123.472,258.007 123.472,258.483 123.413 C 258.959 123.354,258.570 123.305,257.618 123.305 C 256.667 123.305,256.277 123.354,256.753 123.413 M207.452 126.680 C 206.775 127.265,206.319 127.740,206.438 127.734 C 206.683 127.721,209.065 125.615,208.833 125.615 C 208.750 125.615,208.128 126.094,207.452 126.680 M184.834 130.413 C 184.901 130.520,185.253 130.665,185.617 130.735 C 185.980 130.804,186.223 130.773,186.157 130.665 C 186.090 130.558,185.738 130.413,185.375 130.343 C 185.011 130.273,184.768 130.305,184.834 130.413 M282.901 131.470 C 282.374 131.639,282.346 131.683,282.768 131.683 C 283.061 131.683,283.599 131.588,283.965 131.470 C 284.492 131.302,284.520 131.257,284.098 131.257 C 283.806 131.257,283.267 131.353,282.901 131.470 M335.925 153.426 L 335.862 157.685 316.767 157.610 C 306.264 157.570,297.401 157.602,297.070 157.683 L 296.469 157.829 296.538 173.193 L 296.607 188.556 316.234 188.624 L 335.862 188.693 335.862 192.949 L 335.862 197.206 312.193 197.206 L 288.525 197.206 288.415 196.607 C 288.320 196.086,288.309 196.094,288.331 196.673 L 288.357 197.339 312.176 197.339 L 335.995 197.339 336.064 187.331 L 336.134 177.323 334.334 177.153 C 333.345 177.060,328.493 176.982,323.553 176.981 L 314.571 176.979 314.571 173.120 C 314.571 170.217,314.653 169.259,314.904 169.250 C 315.086 169.244,319.817 169.239,325.416 169.239 C 331.015 169.238,335.595 169.153,335.595 169.050 C 335.595 168.947,341.733 168.864,349.235 168.867 L 362.874 168.872 349.504 168.798 L 336.134 168.724 336.061 158.946 C 336.021 153.568,335.960 151.084,335.925 153.426 M121.424 149.764 C 122.265 149.817,123.643 149.817,124.484 149.764 C 125.326 149.711,124.637 149.668,122.954 149.668 C 121.271 149.668,120.582 149.711,121.424 149.764 M224.022 149.756 C 224.353 149.819,224.832 149.817,225.086 149.750 C 225.341 149.684,225.070 149.632,224.484 149.635 C 223.899 149.638,223.691 149.692,224.022 149.756 M277.844 173.067 L 277.977 196.540 278.045 173.268 C 278.083 160.469,278.023 149.906,277.912 149.795 C 277.802 149.685,277.771 160.157,277.844 173.067 M115.902 151.088 C 115.086 151.284,114.836 151.648,115.619 151.499 C 115.998 151.426,116.374 151.261,116.453 151.133 C 116.533 151.004,116.561 150.912,116.516 150.929 C 116.471 150.946,116.194 151.018,115.902 151.088 M113.144 152.504 C 112.799 152.792,112.642 153.027,112.796 153.027 C 112.950 153.027,113.155 152.899,113.252 152.742 C 113.349 152.586,113.685 152.354,113.999 152.227 C 114.330 152.094,114.403 151.993,114.172 151.988 C 113.952 151.984,113.490 152.216,113.144 152.504 M110.820 154.158 C 110.317 154.752,110.317 154.753,110.845 154.326 C 111.138 154.089,111.557 153.829,111.776 153.748 C 112.115 153.624,112.111 153.598,111.751 153.581 C 111.518 153.569,111.099 153.829,110.820 154.158 M136.879 157.751 C 141.390 157.792,148.696 157.792,153.113 157.751 C 157.530 157.710,153.839 157.677,144.910 157.677 C 135.981 157.677,132.367 157.710,136.879 157.751 M335.793 165.083 C 335.744 166.283,335.704 165.230,335.704 162.741 C 335.705 160.253,335.745 159.271,335.794 160.559 C 335.843 161.847,335.842 163.883,335.793 165.083 M190.036 171.723 C 187.825 176.340,185.770 180.654,184.426 183.500 C 183.873 184.671,182.378 187.784,181.103 190.419 C 179.828 193.054,178.617 195.599,178.411 196.075 L 178.037 196.939 191.994 196.939 L 205.951 196.939 205.735 196.208 C 205.616 195.805,204.187 192.738,202.559 189.392 C 200.932 186.046,199.601 183.266,199.601 183.214 C 199.601 183.163,198.605 181.050,197.387 178.520 C 196.170 175.989,194.535 172.572,193.753 170.925 C 192.971 169.278,192.224 167.931,192.092 167.931 C 191.960 167.931,191.034 169.637,190.036 171.723 M269.062 183.300 L 269.195 197.339 273.453 197.349 L 277.711 197.360 273.520 197.276 L 269.328 197.192 269.328 183.227 C 269.328 175.546,269.238 169.261,269.128 169.261 C 269.019 169.261,268.989 175.579,269.062 183.300 M110.056 169.860 C 109.849 170.508,109.757 172.186,109.940 171.989 C 110.042 171.879,110.170 171.281,110.226 170.659 C 110.326 169.535,110.260 169.224,110.056 169.860 M149.900 169.711 C 150.156 169.778,150.576 169.778,150.832 169.711 C 151.088 169.644,150.878 169.589,150.366 169.589 C 149.854 169.589,149.644 169.644,149.900 169.711 M101.308 170.770 C 101.063 171.015,101.084 175.588,101.331 175.741 C 101.440 175.808,101.530 174.678,101.530 173.228 C 101.530 171.778,101.520 170.592,101.508 170.592 C 101.496 170.592,101.406 170.672,101.308 170.770 M109.935 175.300 C 109.923 175.914,110.008 176.474,110.124 176.546 C 110.240 176.617,110.291 176.235,110.238 175.697 C 110.092 174.224,109.958 174.048,109.935 175.300 M123.287 177.695 C 123.543 177.762,123.962 177.762,124.218 177.695 C 124.474 177.628,124.265 177.573,123.752 177.573 C 123.240 177.573,123.031 177.628,123.287 177.695 M125.822 177.707 C 126.448 177.763,127.406 177.762,127.951 177.705 C 128.496 177.648,127.984 177.602,126.813 177.603 C 125.642 177.604,125.196 177.651,125.822 177.707 M102.665 181.383 C 102.735 181.746,102.880 182.098,102.987 182.165 C 103.095 182.231,103.126 181.988,103.057 181.625 C 102.987 181.261,102.842 180.909,102.735 180.842 C 102.627 180.776,102.596 181.019,102.665 181.383 M114.438 184.032 C 115.381 184.983,116.212 185.762,116.285 185.762 C 116.359 185.762,115.647 184.983,114.704 184.032 C 113.761 183.081,112.930 182.302,112.856 182.302 C 112.783 182.302,113.495 183.081,114.438 184.032 M119.632 187.631 C 119.698 187.739,120.050 187.884,120.414 187.954 C 120.777 188.023,121.021 187.992,120.954 187.884 C 120.887 187.776,120.535 187.631,120.172 187.562 C 119.808 187.492,119.565 187.524,119.632 187.631 M129.293 188.623 C 132.999 188.664,138.987 188.664,142.600 188.622 C 146.213 188.581,143.180 188.547,135.862 188.547 C 128.543 188.547,125.587 188.581,129.293 188.623 M163.751 188.621 C 164.892 188.671,166.689 188.671,167.743 188.621 C 168.798 188.570,167.864 188.529,165.669 188.530 C 163.473 188.530,162.610 188.571,163.751 188.621 M169.619 192.282 C 169.620 193.453,169.667 193.899,169.723 193.273 C 169.779 192.647,169.778 191.689,169.721 191.144 C 169.664 190.599,169.618 191.111,169.619 192.282 M172.048 190.685 C 171.979 190.905,171.864 191.270,171.793 191.498 C 171.721 191.725,171.767 191.846,171.894 191.768 C 172.021 191.689,172.183 191.323,172.253 190.955 C 172.392 190.228,172.249 190.040,172.048 190.685 M119.561 196.591 C 119.817 196.658,120.236 196.658,120.492 196.591 C 120.749 196.524,120.539 196.469,120.027 196.469 C 119.514 196.469,119.305 196.524,119.561 196.591 M227.345 197.402 C 228.187 197.455,229.564 197.455,230.406 197.402 C 231.248 197.349,230.559 197.306,228.876 197.306 C 227.192 197.306,226.504 197.349,227.345 197.402 M248.649 197.404 C 249.937 197.453,251.973 197.453,253.173 197.403 C 254.374 197.354,253.320 197.314,250.832 197.314 C 248.343 197.315,247.361 197.355,248.649 197.404 M167.142 201.346 C 167.152 201.613,168.460 203.297,168.462 203.046 C 168.462 202.964,168.164 202.492,167.798 201.996 C 167.432 201.500,167.137 201.207,167.142 201.346 " stroke="none" fill="#eb1d74" fill-rule="evenodd"></path><path id="path2" d="M0.000 133.067 L 0.000 266.134 200.000 266.134 L 400.000 266.134 400.000 133.067 L 400.000 0.000 200.000 0.000 L 0.000 0.000 0.000 133.067 M216.900 81.554 C 216.900 96.696,216.796 109.148,216.670 109.226 C 216.544 109.304,216.380 110.516,216.307 111.920 C 216.234 113.323,216.037 114.608,215.871 114.774 C 215.705 114.940,215.569 115.244,215.569 115.449 C 215.569 115.843,214.977 117.320,214.375 118.430 C 214.176 118.796,213.675 119.740,213.261 120.529 C 212.820 121.369,211.396 123.090,209.819 124.687 C 207.267 127.273,206.565 127.826,204.857 128.596 C 204.454 128.777,204.125 129.010,204.125 129.112 C 204.125 129.215,203.766 129.378,203.327 129.474 C 202.888 129.571,202.528 129.745,202.528 129.861 C 202.528 129.977,202.025 130.152,201.410 130.250 C 200.796 130.349,200.167 130.527,200.013 130.647 C 199.860 130.767,199.375 130.960,198.935 131.076 C 198.496 131.192,197.957 131.345,197.738 131.415 C 195.011 132.288,185.215 131.197,183.899 129.874 C 183.644 129.618,181.310 128.543,181.009 128.543 C 180.842 128.543,180.705 128.423,180.705 128.277 C 180.705 128.130,180.544 128.011,180.347 128.011 C 180.150 128.011,179.773 127.771,179.508 127.478 C 179.243 127.186,178.944 126.946,178.845 126.946 C 178.333 126.946,173.253 121.407,173.253 120.850 C 173.253 120.690,173.155 120.559,173.035 120.559 C 172.753 120.559,170.858 116.787,170.858 116.226 C 170.858 115.991,170.745 115.730,170.608 115.645 C 170.470 115.560,170.284 114.924,170.195 114.232 C 170.106 113.540,169.899 112.735,169.736 112.442 C 169.532 112.077,169.400 107.412,169.314 97.605 L 169.189 83.300 173.596 83.300 L 178.004 83.300 178.139 94.810 C 178.290 107.733,178.550 112.304,179.204 113.506 C 179.442 113.945,179.638 114.436,179.639 114.597 C 179.640 114.758,180.000 115.386,180.439 115.992 C 180.878 116.599,181.238 117.190,181.238 117.308 C 181.238 117.605,183.445 119.741,184.204 120.177 C 184.548 120.376,185.130 120.686,185.496 120.868 C 185.862 121.050,186.460 121.401,186.826 121.648 C 187.192 121.895,187.552 122.103,187.625 122.109 C 187.798 122.125,188.679 122.410,189.355 122.669 C 189.878 122.870,193.072 122.825,196.335 122.572 C 200.450 122.252,207.053 116.301,207.053 112.911 C 207.053 112.638,207.202 112.266,207.385 112.083 C 207.646 111.822,207.733 105.615,207.787 83.220 C 207.825 67.529,207.911 54.541,207.978 54.358 C 208.069 54.110,209.223 54.025,212.500 54.025 L 216.900 54.025 216.900 81.554 M103.999 87.092 L 103.925 90.885 87.771 91.018 C 75.348 91.120,71.540 91.228,71.284 91.484 C 71.101 91.667,70.761 91.816,70.528 91.816 C 69.249 91.816,66.800 95.465,66.800 97.370 C 66.800 98.893,68.593 101.360,70.018 101.798 C 70.371 101.906,70.778 102.084,70.925 102.193 C 71.071 102.303,77.059 102.475,84.232 102.577 C 91.706 102.683,97.380 102.868,97.525 103.011 C 97.664 103.148,97.945 103.260,98.150 103.260 C 98.502 103.260,99.366 103.590,100.865 104.298 C 104.094 105.822,106.019 108.125,108.398 113.306 C 108.784 114.147,108.791 120.322,108.407 121.117 C 107.645 122.696,106.986 124.202,106.986 124.366 C 106.986 124.869,103.292 128.809,102.820 128.809 C 102.623 128.809,102.462 128.910,102.462 129.032 C 102.462 129.155,101.984 129.485,101.400 129.764 C 100.816 130.044,100.337 130.353,100.336 130.451 C 100.334 130.549,99.943 130.713,99.468 130.815 C 98.992 130.917,98.485 131.071,98.341 131.156 C 97.718 131.528,95.507 131.562,66.733 131.650 L 36.460 131.743 36.460 127.748 C 36.460 124.729,36.542 123.752,36.793 123.752 C 60.360 123.721,92.622 123.474,94.530 123.309 C 100.091 122.831,102.301 116.786,98.425 112.660 C 96.934 111.074,97.341 111.118,83.500 111.035 C 76.510 110.993,70.792 110.860,70.792 110.739 C 70.792 110.618,70.103 110.453,69.261 110.370 C 67.246 110.174,65.428 109.253,63.502 107.452 C 62.915 106.903,62.339 106.454,62.222 106.454 C 62.105 106.454,62.009 106.328,62.009 106.175 C 62.009 106.022,61.710 105.619,61.344 105.279 C 60.978 104.940,60.679 104.542,60.679 104.393 C 60.679 104.245,60.502 103.977,60.286 103.798 C 60.071 103.619,59.818 103.066,59.725 102.568 C 59.631 102.070,59.460 101.663,59.344 101.663 C 59.229 101.663,59.049 100.915,58.945 100.000 C 58.841 99.085,58.638 98.190,58.494 98.012 C 57.901 97.278,58.617 93.894,59.918 91.284 C 60.683 89.750,63.526 86.530,64.970 85.562 C 66.026 84.855,67.207 84.348,68.153 84.197 C 68.726 84.105,69.195 83.933,69.195 83.813 C 69.195 83.446,71.153 83.398,87.898 83.348 L 104.073 83.300 103.999 87.092 M143.290 83.811 C 143.449 83.942,144.148 84.133,144.844 84.237 C 145.539 84.340,146.108 84.531,146.108 84.661 C 146.108 84.791,146.317 84.900,146.574 84.904 C 147.382 84.915,150.963 86.848,152.733 88.227 C 155.092 90.066,156.753 91.571,156.753 91.869 C 156.753 92.007,157.203 92.680,157.752 93.365 C 158.971 94.884,159.257 95.339,159.961 96.873 C 160.263 97.532,160.683 98.410,160.894 98.825 C 161.106 99.239,161.354 100.078,161.447 100.688 C 161.540 101.297,161.750 101.965,161.913 102.171 C 162.317 102.682,162.313 112.261,161.908 112.521 C 161.748 112.624,161.534 113.277,161.431 113.973 C 161.328 114.670,161.073 115.568,160.863 115.969 C 160.654 116.371,160.482 116.833,160.481 116.995 C 160.478 117.412,158.863 120.407,158.582 120.515 C 158.454 120.563,158.350 120.731,158.350 120.886 C 158.350 121.267,156.670 123.294,154.957 124.981 C 153.685 126.233,153.179 127.212,153.805 127.212 C 153.939 127.212,154.128 127.572,154.225 128.011 C 154.321 128.450,154.510 128.809,154.645 128.809 C 154.780 128.809,154.890 128.941,154.890 129.101 C 154.890 129.572,155.491 130.840,160.245 140.411 C 163.285 146.533,164.699 149.650,164.590 149.992 C 164.501 150.271,163.965 151.457,163.398 152.628 C 162.830 153.799,162.070 155.430,161.708 156.253 L 161.050 157.749 141.359 157.865 C 127.846 157.945,121.557 158.071,121.313 158.268 C 121.118 158.426,120.569 158.638,120.093 158.740 C 119.617 158.841,119.228 159.025,119.228 159.148 C 119.228 159.271,118.869 159.451,118.430 159.548 C 117.991 159.644,117.631 159.833,117.631 159.968 C 117.631 160.103,117.470 160.213,117.273 160.213 C 117.077 160.213,116.699 160.452,116.434 160.745 C 116.169 161.038,115.855 161.277,115.736 161.277 C 115.455 161.277,113.639 163.093,113.639 163.374 C 113.639 163.493,113.400 163.807,113.107 164.072 C 112.814 164.337,112.575 164.715,112.575 164.912 C 112.575 165.108,112.476 165.269,112.356 165.269 C 112.072 165.269,110.978 167.458,110.978 168.026 C 110.978 168.267,110.867 168.463,110.731 168.463 C 110.595 168.463,110.410 169.152,110.319 169.993 C 110.228 170.835,110.040 171.732,109.900 171.986 C 109.586 172.561,109.569 173.972,109.875 174.161 C 110.000 174.238,110.176 175.013,110.267 175.883 C 110.738 180.381,116.961 187.625,120.356 187.625 C 120.555 187.625,120.868 187.774,121.051 187.957 C 121.307 188.214,124.798 188.308,136.258 188.367 L 151.133 188.444 150.504 187.260 C 150.158 186.609,149.945 186.005,150.031 185.919 C 150.118 185.833,150.058 185.762,149.899 185.762 C 149.740 185.762,149.531 185.403,149.434 184.963 C 149.338 184.524,149.163 184.165,149.045 184.165 C 148.927 184.165,148.761 183.955,148.675 183.699 C 148.485 183.133,147.919 182.228,147.615 182.006 C 147.493 181.917,147.402 181.768,147.413 181.675 C 147.450 181.354,146.091 178.576,145.897 178.576 C 145.790 178.576,145.584 178.307,145.439 177.977 C 145.135 177.284,139.370 177.158,128.607 177.612 C 121.859 177.896,122.422 178.295,122.422 173.221 L 122.422 169.261 135.558 169.261 C 150.100 169.261,150.912 169.307,151.319 170.154 C 151.875 171.312,152.899 173.123,153.073 173.255 C 153.171 173.330,153.334 173.720,153.434 174.121 C 153.535 174.522,153.715 174.850,153.833 174.850 C 153.952 174.850,154.128 175.210,154.225 175.649 C 154.321 176.088,154.501 176.447,154.624 176.447 C 154.747 176.447,154.927 176.806,155.023 177.246 C 155.120 177.685,155.299 178.044,155.422 178.044 C 155.546 178.044,155.725 178.403,155.822 178.842 C 155.918 179.281,156.098 179.641,156.221 179.641 C 156.344 179.641,156.524 180.000,156.620 180.439 C 156.717 180.878,156.896 181.238,157.019 181.238 C 157.142 181.238,157.322 181.597,157.418 182.036 C 157.515 182.475,157.695 182.834,157.818 182.834 C 157.941 182.834,158.120 183.194,158.217 183.633 C 158.313 184.072,158.473 184.432,158.571 184.433 C 158.669 184.434,158.878 184.704,159.035 185.032 C 159.192 185.360,159.653 186.257,160.061 187.026 L 160.801 188.423 165.142 188.423 L 169.482 188.423 169.670 190.428 C 169.773 191.531,169.789 193.144,169.704 194.012 C 169.616 194.913,169.659 195.659,169.805 195.749 C 169.945 195.835,170.060 195.719,170.060 195.490 C 170.060 195.262,170.299 194.628,170.592 194.081 C 170.885 193.535,171.124 192.937,171.124 192.752 C 171.124 192.567,171.235 192.415,171.369 192.415 C 171.504 192.415,171.690 192.070,171.783 191.648 C 171.876 191.226,172.404 189.995,172.958 188.913 C 173.512 187.830,174.054 186.590,174.162 186.156 C 174.271 185.723,174.441 185.307,174.539 185.232 C 174.793 185.039,175.915 182.699,175.915 182.362 C 175.915 182.207,176.005 182.040,176.114 181.992 C 176.368 181.879,177.512 179.550,177.512 179.146 C 177.512 178.979,177.622 178.842,177.757 178.842 C 177.891 178.842,178.081 178.483,178.177 178.044 C 178.273 177.605,178.463 177.246,178.597 177.246 C 178.732 177.246,178.842 177.052,178.842 176.815 C 178.842 176.578,180.093 173.853,181.621 170.760 C 183.150 167.667,184.480 164.807,184.578 164.405 C 184.675 164.002,184.852 163.673,184.971 163.673 C 185.090 163.673,185.266 163.313,185.363 162.874 C 185.459 162.435,185.639 162.076,185.762 162.076 C 185.885 162.076,186.065 161.717,186.161 161.277 C 186.257 160.838,186.437 160.479,186.560 160.479 C 186.683 160.479,186.866 160.108,186.965 159.654 C 187.065 159.201,187.607 157.929,188.170 156.829 C 188.732 155.728,189.269 154.482,189.361 154.061 C 189.454 153.639,189.631 153.293,189.754 153.293 C 189.877 153.293,190.057 152.934,190.153 152.495 C 190.249 152.056,190.429 151.697,190.552 151.697 C 190.675 151.697,190.855 151.337,190.951 150.898 C 191.048 150.459,191.237 150.100,191.372 150.100 C 191.507 150.100,191.617 149.920,191.617 149.701 C 191.617 149.481,191.728 149.301,191.865 149.301 C 192.178 149.301,200.399 165.773,200.399 166.401 C 200.399 166.657,200.509 166.866,200.644 166.866 C 200.779 166.866,200.968 167.226,201.065 167.665 C 201.161 168.104,201.341 168.463,201.464 168.463 C 201.587 168.463,201.766 168.822,201.863 169.261 C 201.959 169.701,202.139 170.060,202.262 170.060 C 202.385 170.060,202.565 170.419,202.661 170.858 C 202.758 171.297,202.947 171.657,203.082 171.657 C 203.216 171.657,203.327 171.788,203.327 171.949 C 203.327 172.346,203.870 173.563,205.880 177.667 C 206.818 179.582,207.585 181.349,207.585 181.593 C 207.585 181.836,207.705 182.036,207.851 182.036 C 207.997 182.036,208.117 182.176,208.117 182.346 C 208.117 182.517,209.062 184.583,210.217 186.937 C 213.828 194.300,214.770 196.321,214.771 196.703 C 214.771 197.016,211.339 197.061,192.349 196.999 C 176.064 196.945,169.772 197.007,169.361 197.225 C 168.947 197.445,168.649 197.447,168.248 197.233 C 167.566 196.868,165.269 196.845,165.269 197.203 C 165.269 197.590,167.276 201.357,167.915 202.169 C 168.216 202.553,168.465 203.000,168.466 203.163 C 168.468 203.326,168.844 204.178,169.301 205.057 C 171.121 208.551,171.923 210.214,171.923 210.490 C 171.923 210.648,172.029 210.778,172.158 210.778 C 172.287 210.778,172.450 211.078,172.520 211.444 L 172.647 212.109 167.916 212.109 L 163.184 212.109 161.774 209.248 C 160.999 207.675,160.164 206.088,159.919 205.722 C 159.674 205.356,159.478 204.997,159.485 204.923 C 159.505 204.686,157.989 201.618,157.479 200.865 C 157.206 200.462,157.065 200.133,157.166 200.133 C 157.266 200.133,157.061 199.744,156.709 199.268 C 156.358 198.792,155.929 198.079,155.757 197.682 L 155.444 196.961 137.459 196.884 C 124.478 196.828,119.422 196.723,119.285 196.506 C 119.181 196.341,118.586 196.121,117.964 196.017 C 117.342 195.913,116.833 195.728,116.833 195.607 C 116.833 195.485,116.479 195.307,116.046 195.212 C 114.677 194.911,112.498 193.693,111.639 192.748 C 111.339 192.418,110.981 192.149,110.842 192.149 C 110.459 192.149,105.921 187.552,105.921 187.165 C 105.921 186.979,105.799 186.826,105.649 186.826 C 105.499 186.826,105.256 186.557,105.109 186.228 C 104.963 185.898,104.367 184.733,103.786 183.639 C 103.205 182.545,102.656 181.256,102.565 180.775 C 102.475 180.294,102.302 179.840,102.181 179.765 C 102.060 179.690,101.878 178.790,101.777 177.766 C 101.676 176.741,101.489 175.839,101.362 175.760 C 101.235 175.682,101.131 174.554,101.131 173.253 C 101.131 171.953,101.235 170.825,101.362 170.747 C 101.489 170.668,101.676 169.763,101.778 168.735 C 101.879 167.707,102.059 166.866,102.178 166.866 C 102.297 166.866,102.466 166.417,102.555 165.868 C 102.719 164.852,104.587 160.955,105.276 160.192 C 105.485 159.961,105.655 159.656,105.655 159.514 C 105.655 159.372,106.010 158.963,106.442 158.604 C 106.875 158.245,107.235 157.817,107.241 157.655 C 107.247 157.492,107.881 156.795,108.649 156.106 C 109.418 155.417,110.347 154.562,110.715 154.206 C 111.082 153.851,111.480 153.560,111.597 153.560 C 111.715 153.560,112.218 153.250,112.714 152.871 C 113.719 152.105,115.466 151.165,115.891 151.163 C 116.043 151.162,116.513 150.981,116.935 150.761 C 117.357 150.541,118.195 150.284,118.798 150.190 C 119.400 150.096,119.975 149.893,120.075 149.740 C 120.198 149.551,125.897 149.424,137.574 149.347 C 147.098 149.285,154.890 149.215,154.890 149.192 C 154.890 149.169,153.453 146.280,151.697 142.772 C 149.941 139.264,148.504 136.297,148.503 136.179 C 148.503 136.061,147.945 134.834,147.264 133.451 C 146.025 130.939,144.595 129.992,143.854 131.191 C 143.768 131.330,143.288 131.392,142.787 131.328 C 142.286 131.263,141.804 131.329,141.714 131.474 C 141.508 131.808,135.716 131.820,134.429 131.489 C 133.899 131.352,132.748 131.100,131.870 130.929 C 129.876 130.539,126.148 128.768,124.503 127.428 C 123.818 126.870,123.149 126.414,123.017 126.414 C 122.490 126.414,117.631 120.828,117.631 120.223 C 117.631 120.069,117.338 119.560,116.980 119.090 C 116.622 118.621,116.245 117.891,116.142 117.468 C 116.039 117.046,115.793 116.464,115.596 116.175 C 115.398 115.886,115.236 115.341,115.236 114.964 C 115.236 114.587,115.101 114.143,114.936 113.978 C 114.771 113.813,114.575 112.828,114.500 111.789 C 114.426 110.750,114.262 109.836,114.135 109.758 C 113.838 109.574,113.834 105.997,114.131 105.813 C 114.256 105.736,114.430 104.640,114.520 103.376 C 114.609 102.113,114.796 100.941,114.935 100.773 C 115.075 100.604,115.272 100.017,115.375 99.468 C 115.478 98.919,115.658 98.470,115.777 98.470 C 115.895 98.470,116.071 98.110,116.168 97.671 C 116.264 97.232,116.444 96.873,116.567 96.873 C 116.690 96.873,116.870 96.514,116.966 96.075 C 117.063 95.635,117.252 95.276,117.386 95.276 C 117.521 95.276,117.631 95.115,117.631 94.918 C 117.631 94.721,117.871 94.343,118.164 94.079 C 118.456 93.814,118.696 93.463,118.696 93.301 C 118.696 92.960,123.729 87.904,124.513 87.456 C 126.571 86.281,129.487 84.897,129.904 84.897 C 130.180 84.897,130.406 84.789,130.406 84.657 C 130.406 84.525,131.124 84.333,132.003 84.232 C 132.881 84.130,133.599 83.945,133.599 83.821 C 133.599 83.305,142.663 83.295,143.290 83.811 M234.753 86.693 C 234.765 88.560,234.844 90.386,234.928 90.752 C 235.012 91.118,235.124 100.489,235.177 111.577 L 235.273 131.737 230.876 131.737 L 226.480 131.737 226.480 107.518 L 226.480 83.300 230.605 83.300 L 234.731 83.300 234.753 86.693 M285.588 83.741 C 285.793 83.910,286.548 84.136,287.265 84.243 C 287.981 84.349,288.880 84.599,289.261 84.798 C 289.642 84.997,290.163 85.160,290.419 85.161 C 290.675 85.162,290.885 85.273,290.885 85.408 C 290.885 85.543,291.244 85.732,291.683 85.828 C 292.122 85.925,292.482 86.114,292.482 86.249 C 292.482 86.383,292.606 86.494,292.759 86.494 C 293.074 86.494,294.698 87.588,294.833 87.891 C 294.881 88.001,295.059 88.090,295.227 88.090 C 295.638 88.090,300.466 92.917,300.466 93.328 C 300.466 93.507,300.624 93.749,300.818 93.866 C 301.160 94.071,301.451 94.626,301.474 95.113 C 301.480 95.243,301.597 95.423,301.733 95.512 C 302.103 95.755,303.376 98.132,303.220 98.288 C 303.145 98.363,303.268 98.703,303.491 99.045 C 304.479 100.555,305.409 111.712,304.614 112.508 C 304.528 112.593,304.457 112.973,304.456 113.351 C 304.455 113.729,304.276 114.382,304.057 114.801 C 303.838 115.220,303.659 115.741,303.659 115.957 C 303.659 116.344,302.886 117.902,302.564 118.164 C 302.474 118.237,302.308 118.596,302.196 118.962 C 301.946 119.774,300.580 121.764,299.644 122.680 C 299.265 123.050,298.622 123.802,298.215 124.351 C 297.808 124.900,297.349 125.349,297.195 125.349 C 297.041 125.349,296.422 125.858,295.819 126.480 C 294.524 127.817,291.516 129.602,290.552 129.606 C 290.296 129.607,290.086 129.697,290.084 129.807 C 290.081 130.147,288.720 130.661,287.037 130.958 C 286.153 131.114,284.851 131.353,284.145 131.489 C 283.429 131.627,274.680 131.737,264.384 131.737 L 245.908 131.737 245.908 107.497 L 245.908 83.258 265.561 83.346 C 279.929 83.410,285.315 83.516,285.588 83.741 M254.424 107.510 C 254.424 119.893,254.495 123.223,254.757 123.234 C 259.824 123.447,284.206 123.125,284.987 122.835 C 285.523 122.637,286.201 122.383,286.494 122.271 C 286.786 122.160,287.086 122.050,287.159 122.027 C 287.766 121.835,288.756 121.229,288.756 121.048 C 288.756 120.926,288.893 120.825,289.061 120.825 C 289.413 120.825,291.625 119.093,292.216 118.354 C 292.435 118.079,293.005 117.355,293.482 116.745 C 293.958 116.135,294.462 115.496,294.602 115.326 C 294.741 115.155,294.933 114.706,295.028 114.328 C 295.123 113.949,295.294 113.639,295.408 113.639 C 295.522 113.639,295.700 113.071,295.803 112.375 C 295.907 111.680,296.116 110.960,296.268 110.774 C 296.645 110.317,296.617 104.627,296.235 104.246 C 296.074 104.084,295.941 103.730,295.941 103.458 C 295.941 102.976,295.293 101.350,294.395 99.580 C 293.241 97.306,288.264 93.261,285.961 92.727 C 285.522 92.625,284.995 92.408,284.790 92.245 C 284.528 92.038,279.919 91.927,269.420 91.874 L 254.424 91.799 254.424 107.510 M235.344 157.086 C 247.040 180.753,250.729 188.157,250.823 188.157 C 250.920 188.157,253.942 182.083,257.853 174.024 C 258.748 172.179,259.481 170.532,259.481 170.365 C 259.481 170.197,259.591 170.060,259.726 170.060 C 259.861 170.060,260.050 169.701,260.146 169.261 C 260.243 168.822,260.422 168.463,260.546 168.463 C 260.669 168.463,260.848 168.104,260.945 167.665 C 261.041 167.226,261.221 166.866,261.344 166.866 C 261.467 166.866,261.647 166.507,261.743 166.068 C 261.840 165.629,262.019 165.269,262.142 165.269 C 262.265 165.269,262.445 164.910,262.542 164.471 C 262.638 164.032,262.818 163.673,262.941 163.673 C 263.064 163.673,263.244 163.313,263.340 162.874 C 263.436 162.435,263.616 162.076,263.739 162.076 C 263.862 162.076,264.042 161.717,264.138 161.277 C 264.235 160.838,264.414 160.479,264.538 160.479 C 264.661 160.479,264.840 160.120,264.937 159.681 C 265.033 159.242,265.209 158.882,265.328 158.882 C 265.447 158.882,265.627 158.554,265.727 158.153 C 265.828 157.752,265.991 157.363,266.089 157.288 C 266.360 157.082,268.263 153.156,268.263 152.803 C 268.263 152.634,268.374 152.495,268.508 152.495 C 268.643 152.495,268.832 152.136,268.929 151.697 C 269.025 151.257,269.205 150.898,269.328 150.898 C 269.451 150.898,269.631 150.539,269.727 150.100 L 269.903 149.301 273.687 149.301 C 276.276 149.301,277.573 149.402,277.791 149.621 C 278.246 150.076,278.253 195.802,277.799 196.800 L 277.487 197.485 273.341 197.412 L 269.195 197.339 269.062 183.469 L 268.929 169.600 265.168 177.215 C 259.545 188.601,258.150 191.508,258.150 191.844 C 258.150 192.012,258.044 192.149,257.913 192.149 C 257.783 192.149,257.593 192.477,257.493 192.878 C 257.392 193.279,257.229 193.669,257.131 193.743 C 256.917 193.906,255.755 196.252,255.755 196.522 C 255.755 197.307,254.899 197.472,250.832 197.472 C 246.352 197.472,246.101 197.401,245.759 196.040 C 245.663 195.657,245.487 195.343,245.368 195.343 C 245.249 195.343,245.073 194.983,244.977 194.544 C 244.880 194.105,244.701 193.746,244.578 193.746 C 244.454 193.746,244.275 193.387,244.178 192.947 C 244.082 192.508,243.902 192.149,243.779 192.149 C 243.656 192.149,243.476 191.790,243.380 191.351 C 243.283 190.912,243.104 190.552,242.981 190.552 C 242.858 190.552,242.678 190.193,242.582 189.754 C 242.485 189.315,242.305 188.955,242.182 188.955 C 242.059 188.955,241.880 188.596,241.783 188.157 C 241.687 187.718,241.507 187.359,241.384 187.359 C 241.261 187.359,241.081 186.999,240.985 186.560 C 240.888 186.121,240.709 185.762,240.585 185.762 C 240.462 185.762,240.283 185.403,240.186 184.963 C 240.090 184.524,239.910 184.165,239.787 184.165 C 239.664 184.165,239.484 183.806,239.388 183.367 C 239.291 182.927,239.112 182.568,238.989 182.568 C 238.866 182.568,238.686 182.209,238.589 181.770 C 238.493 181.331,238.313 180.971,238.190 180.971 C 238.067 180.971,237.888 180.612,237.791 180.173 C 237.695 179.734,237.515 179.375,237.392 179.375 C 237.269 179.375,237.089 179.015,236.993 178.576 C 236.896 178.137,236.717 177.778,236.593 177.778 C 236.470 177.778,236.291 177.418,236.194 176.979 C 236.098 176.540,235.918 176.181,235.795 176.181 C 235.672 176.181,235.492 175.822,235.396 175.383 C 235.299 174.943,235.120 174.584,234.997 174.584 C 234.874 174.584,234.694 174.225,234.597 173.786 C 234.501 173.347,234.321 172.987,234.198 172.987 C 234.075 172.987,233.896 172.628,233.799 172.189 C 233.703 171.750,233.523 171.391,233.400 171.391 C 233.277 171.391,233.097 171.031,233.001 170.592 C 232.904 170.153,232.656 169.794,232.450 169.794 C 232.132 169.794,232.063 171.918,232.005 183.566 L 231.936 197.339 228.876 197.318 C 227.192 197.306,225.321 197.203,224.717 197.088 L 223.619 196.878 223.466 194.846 C 223.237 191.796,223.255 150.376,223.486 149.964 C 223.724 149.540,224.842 149.406,228.656 149.346 L 231.496 149.301 235.344 157.086 M336.128 159.013 L 336.128 168.724 349.634 168.793 L 363.140 168.862 363.214 173.230 L 363.287 177.598 349.711 177.431 L 336.134 177.263 336.064 187.301 L 335.995 197.339 312.230 197.339 L 288.465 197.339 288.411 173.320 L 288.357 149.301 312.242 149.301 L 336.128 149.301 336.128 159.013 " stroke="none" fill="#040404" fill-rule="evenodd"></path></g></svg>
